%
M48
M72
T01C0.02362
T02C0.03150
T03C0.03200
T04C0.03937
T05C0.04000
T06C0.07480
%
T01
X67800Y58388
X68100Y91788
X63300Y128688
X71600Y138288
X101600Y168288
X121100Y183788
X146600Y153288
X181600Y123288
X161600Y108288
X141600Y98288
X148000Y88088
X154200Y78288
X136600Y58288
X141600Y48288
X160600Y47288
X181600Y43288
X181600Y38288
X126600Y73288
X101600Y48288
X126600Y108288
X16600Y88288
T02
X137746Y17548
X145620Y17548
X153494Y17548
X169383Y35251
X174108Y38401
X169383Y41550
X174108Y44700
X169383Y47850
T03
X32478Y19044
X32478Y39044
X23694Y52540
X13694Y52540
X20880Y66776
X14631Y78190
X35836Y98942
X45836Y98942
X54631Y78190
X60880Y66776
X49596Y48883
X49596Y38883
X62100Y25288
X67100Y17788
X72100Y25288
X75746Y38434
X75746Y48434
X87966Y48544
X87966Y38544
X90360Y27001
X90360Y17001
X117966Y38544
X117966Y48544
X117966Y58544
X117966Y68544
X117966Y78544
X117966Y88544
X117966Y98544
X117966Y108544
X117966Y118544
X117966Y128544
X117966Y138544
X117966Y148544
X117966Y158544
X117966Y168544
X129100Y168698
X129100Y158698
X87966Y158544
X87966Y148544
X87966Y138544
X87966Y128544
X87966Y118544
X87966Y108544
X87966Y98544
X87966Y88544
X87966Y78544
X87966Y68544
X87966Y58544
X134100Y68572
X134100Y88572
X175738Y153379
X175738Y193379
X87966Y168544
X54624Y174544
X54624Y134544
T04
X129872Y17548
X161368Y17548
T05
X6600Y73288
X6600Y83288
X6600Y93288
X6600Y103288
X6600Y113288
X6600Y123288
X6600Y133288
X6600Y143288
X30588Y193284
X50588Y193284
X80738Y198123
X90738Y198123
X100738Y198123
X110738Y198123
X120738Y198123
X140565Y193178
X160565Y193178
X193600Y143288
X193600Y133288
X193600Y123288
X193600Y113288
X193600Y103288
X193600Y93288
X193600Y83288
X193600Y73288
X76112Y77977
X76112Y87977
X76112Y97977
T06
X189462Y27180
X189462Y55920
M30
