G75*
%MOIN*%
%OFA0B0*%
%FSLAX25Y25*%
%IPPOS*%
%LPD*%
%AMOC8*
5,1,8,0,0,1.08239X$1,22.5*
%
%ADD10C,0.00000*%
%ADD11C,0.00500*%
%ADD12R,0.01800X0.00200*%
%ADD13R,0.02000X0.00200*%
%ADD14R,0.01200X0.00200*%
%ADD15R,0.00800X0.00200*%
%ADD16R,0.01000X0.00200*%
%ADD17R,0.03800X0.00200*%
%ADD18R,0.00600X0.00200*%
%ADD19R,0.00400X0.00200*%
%ADD20R,0.01600X0.00200*%
%ADD21R,0.01400X0.00200*%
%ADD22R,0.08400X0.00200*%
%ADD23R,0.15400X0.00200*%
%ADD24R,0.00200X0.00200*%
%ADD25R,0.16800X0.00200*%
%ADD26R,0.17800X0.00200*%
%ADD27R,0.02800X0.00200*%
%ADD28R,0.03000X0.00200*%
%ADD29R,0.18400X0.00200*%
%ADD30R,0.02200X0.00200*%
%ADD31R,0.18200X0.00200*%
%ADD32R,0.17600X0.00200*%
%ADD33R,0.17400X0.00200*%
%ADD34R,0.17200X0.00200*%
%ADD35R,0.02400X0.00200*%
%ADD36R,0.17000X0.00200*%
%ADD37R,0.16600X0.00200*%
%ADD38R,0.02600X0.00200*%
%ADD39R,0.16400X0.00200*%
%ADD40R,0.03200X0.00200*%
%ADD41R,0.16000X0.00200*%
%ADD42R,0.15800X0.00200*%
%ADD43R,0.03600X0.00200*%
%ADD44R,0.18000X0.00200*%
%ADD45R,0.18800X0.00200*%
%ADD46R,0.19200X0.00200*%
%ADD47R,0.19600X0.00200*%
%ADD48R,0.20000X0.00200*%
%ADD49R,0.20600X0.00200*%
%ADD50R,0.21200X0.00200*%
%ADD51R,0.22000X0.00200*%
%ADD52R,0.23400X0.00200*%
%ADD53R,0.25600X0.00200*%
%ADD54R,0.03400X0.00200*%
%ADD55R,0.26200X0.00200*%
%ADD56R,0.06600X0.00200*%
%ADD57R,0.27200X0.00200*%
%ADD58R,0.27800X0.00200*%
%ADD59R,0.28200X0.00200*%
%ADD60R,0.07000X0.00200*%
%ADD61R,0.28800X0.00200*%
%ADD62R,0.06800X0.00200*%
%ADD63R,0.29200X0.00200*%
%ADD64R,0.32000X0.00200*%
%ADD65R,0.32400X0.00200*%
%ADD66R,0.06400X0.00200*%
%ADD67R,0.32600X0.00200*%
%ADD68R,0.06200X0.00200*%
%ADD69R,0.33000X0.00200*%
%ADD70R,0.39600X0.00200*%
%ADD71R,0.05600X0.00200*%
%ADD72R,0.30400X0.00200*%
%ADD73R,0.05200X0.00200*%
%ADD74R,0.29600X0.00200*%
%ADD75R,0.04800X0.00200*%
%ADD76R,0.28600X0.00200*%
%ADD77R,0.04600X0.00200*%
%ADD78R,0.14400X0.00200*%
%ADD79R,0.11600X0.00200*%
%ADD80R,0.04200X0.00200*%
%ADD81R,0.09800X0.00200*%
%ADD82R,0.10000X0.00200*%
%ADD83R,0.04000X0.00200*%
%ADD84R,0.09600X0.00200*%
%ADD85R,0.09000X0.00200*%
%ADD86R,0.08800X0.00200*%
%ADD87R,0.08000X0.00200*%
%ADD88R,0.07800X0.00200*%
%ADD89R,0.07600X0.00200*%
%ADD90R,0.07200X0.00200*%
%ADD91R,0.06000X0.00200*%
%ADD92R,0.05800X0.00200*%
%ADD93R,0.05400X0.00200*%
%ADD94R,0.05000X0.00200*%
%ADD95R,0.04400X0.00200*%
%ADD96R,0.08200X0.00200*%
%ADD97R,0.09200X0.00200*%
%ADD98R,0.08600X0.00200*%
%ADD99R,0.07400X0.00200*%
%ADD100R,0.11400X0.00200*%
%ADD101C,0.00600*%
%ADD102C,0.01000*%
%ADD103R,0.10000X0.02000*%
%ADD104R,0.03400X0.02400*%
%ADD105R,0.02400X0.03400*%
%ADD106C,0.00700*%
%ADD107C,0.01600*%
%ADD108C,0.00400*%
%ADD109C,0.00800*%
D10*
X0001600Y0008288D02*
X0001600Y0205139D01*
X0198450Y0205139D01*
X0198450Y0008288D01*
X0001600Y0008288D01*
D11*
X0017724Y0020380D02*
X0022228Y0020380D01*
X0022228Y0021881D02*
X0022228Y0018878D01*
X0019225Y0018878D02*
X0017724Y0020380D01*
X0018475Y0023482D02*
X0017724Y0024233D01*
X0017724Y0025734D01*
X0018475Y0026485D01*
X0021477Y0023482D01*
X0022228Y0024233D01*
X0022228Y0025734D01*
X0021477Y0026485D01*
X0018475Y0026485D01*
X0019225Y0028086D02*
X0021477Y0028086D01*
X0022228Y0028837D01*
X0022228Y0031089D01*
X0019225Y0031089D01*
X0019976Y0032690D02*
X0019976Y0034191D01*
X0017724Y0032690D02*
X0017724Y0035693D01*
X0017724Y0032690D02*
X0022228Y0032690D01*
X0021477Y0023482D02*
X0018475Y0023482D01*
X0047622Y0015042D02*
X0047622Y0010538D01*
X0050625Y0010538D02*
X0050625Y0015042D01*
X0049124Y0013541D01*
X0047622Y0015042D01*
X0052226Y0014291D02*
X0052226Y0011289D01*
X0052977Y0010538D01*
X0054478Y0010538D01*
X0055229Y0011289D01*
X0056830Y0012039D02*
X0059082Y0012039D01*
X0059833Y0012790D01*
X0059833Y0014291D01*
X0059082Y0015042D01*
X0056830Y0015042D01*
X0056830Y0010538D01*
X0055229Y0014291D02*
X0054478Y0015042D01*
X0052977Y0015042D01*
X0052226Y0014291D01*
X0061434Y0013541D02*
X0062936Y0015042D01*
X0062936Y0010538D01*
X0064437Y0010538D02*
X0061434Y0010538D01*
X0066038Y0010538D02*
X0066038Y0011289D01*
X0069041Y0014291D01*
X0069041Y0015042D01*
X0066038Y0015042D01*
X0070642Y0014291D02*
X0070642Y0011289D01*
X0073645Y0014291D01*
X0073645Y0011289D01*
X0072894Y0010538D01*
X0071393Y0010538D01*
X0070642Y0011289D01*
X0070642Y0014291D02*
X0071393Y0015042D01*
X0072894Y0015042D01*
X0073645Y0014291D01*
X0075246Y0014291D02*
X0075997Y0015042D01*
X0077498Y0015042D01*
X0078249Y0014291D01*
X0078249Y0013541D01*
X0075246Y0010538D01*
X0078249Y0010538D01*
X0077552Y0026288D02*
X0075973Y0026288D01*
X0075346Y0031788D02*
X0058854Y0031788D01*
X0059595Y0035133D02*
X0056593Y0035133D01*
X0055842Y0035883D01*
X0055842Y0037385D01*
X0056593Y0038135D01*
X0059595Y0035133D01*
X0060346Y0035883D01*
X0060346Y0037385D01*
X0059595Y0038135D01*
X0056593Y0038135D01*
X0059595Y0039737D02*
X0059595Y0040487D01*
X0060346Y0040487D01*
X0060346Y0039737D01*
X0059595Y0039737D01*
X0060346Y0042039D02*
X0060346Y0045041D01*
X0060346Y0043540D02*
X0055842Y0043540D01*
X0057344Y0042039D01*
X0057344Y0046642D02*
X0059595Y0046642D01*
X0060346Y0047393D01*
X0060346Y0049645D01*
X0057344Y0049645D01*
X0058094Y0051246D02*
X0058094Y0052748D01*
X0055842Y0051246D02*
X0055842Y0054249D01*
X0055842Y0051246D02*
X0060346Y0051246D01*
X0064992Y0051082D02*
X0064992Y0048080D01*
X0069496Y0048080D01*
X0069496Y0046479D02*
X0066493Y0046479D01*
X0067244Y0048080D02*
X0067244Y0049581D01*
X0069496Y0046479D02*
X0069496Y0044227D01*
X0068745Y0043476D01*
X0066493Y0043476D01*
X0069496Y0041875D02*
X0069496Y0038872D01*
X0069496Y0040373D02*
X0064992Y0040373D01*
X0066493Y0038872D01*
X0068745Y0037321D02*
X0068745Y0036570D01*
X0069496Y0036570D01*
X0069496Y0037321D01*
X0068745Y0037321D01*
X0068745Y0034969D02*
X0065742Y0034969D01*
X0068745Y0031966D01*
X0069496Y0032717D01*
X0069496Y0034218D01*
X0068745Y0034969D01*
X0068745Y0031966D02*
X0065742Y0031966D01*
X0064992Y0032717D01*
X0064992Y0034218D01*
X0065742Y0034969D01*
X0065973Y0026288D02*
X0068227Y0026288D01*
X0075346Y0031788D02*
X0075499Y0031589D01*
X0075647Y0031387D01*
X0075790Y0031182D01*
X0075928Y0030973D01*
X0076061Y0030761D01*
X0076189Y0030546D01*
X0076311Y0030328D01*
X0076429Y0030107D01*
X0076541Y0029883D01*
X0076648Y0029657D01*
X0076749Y0029428D01*
X0076845Y0029197D01*
X0076936Y0028963D01*
X0077021Y0028728D01*
X0077100Y0028490D01*
X0077173Y0028251D01*
X0077241Y0028010D01*
X0077303Y0027768D01*
X0077359Y0027524D01*
X0077410Y0027278D01*
X0077454Y0027032D01*
X0077493Y0026785D01*
X0077525Y0026537D01*
X0077552Y0026288D01*
X0064004Y0015255D02*
X0063762Y0015333D01*
X0063522Y0015417D01*
X0063284Y0015506D01*
X0063048Y0015602D01*
X0062814Y0015703D01*
X0062583Y0015809D01*
X0062355Y0015922D01*
X0062129Y0016039D01*
X0061906Y0016162D01*
X0061687Y0016291D01*
X0061470Y0016425D01*
X0061257Y0016564D01*
X0061047Y0016708D01*
X0060841Y0016857D01*
X0060639Y0017011D01*
X0060440Y0017170D01*
X0060245Y0017334D01*
X0060054Y0017503D01*
X0059868Y0017676D01*
X0059685Y0017853D01*
X0059507Y0018035D01*
X0059334Y0018221D01*
X0059165Y0018412D01*
X0059001Y0018606D01*
X0058841Y0018804D01*
X0058686Y0019006D01*
X0058537Y0019212D01*
X0058392Y0019421D01*
X0058252Y0019634D01*
X0058118Y0019850D01*
X0057989Y0020070D01*
X0057865Y0020292D01*
X0057746Y0020517D01*
X0057634Y0020745D01*
X0057526Y0020976D01*
X0057425Y0021209D01*
X0057329Y0021445D01*
X0057238Y0021683D01*
X0057154Y0021923D01*
X0057075Y0022165D01*
X0057002Y0022409D01*
X0056936Y0022655D01*
X0056875Y0022902D01*
X0056820Y0023150D01*
X0056771Y0023400D01*
X0056728Y0023651D01*
X0056692Y0023903D01*
X0056661Y0024155D01*
X0056637Y0024409D01*
X0056619Y0024662D01*
X0056607Y0024917D01*
X0056601Y0025171D01*
X0056601Y0025426D01*
X0056607Y0025680D01*
X0056620Y0025934D01*
X0056639Y0026188D01*
X0056664Y0026441D01*
X0056695Y0026694D01*
X0056732Y0026946D01*
X0056775Y0027196D01*
X0056824Y0027446D01*
X0056879Y0027695D01*
X0056941Y0027942D01*
X0057008Y0028187D01*
X0057081Y0028431D01*
X0057160Y0028673D01*
X0057245Y0028912D01*
X0057336Y0029150D01*
X0057433Y0029386D01*
X0057535Y0029619D01*
X0057643Y0029849D01*
X0057756Y0030077D01*
X0057875Y0030302D01*
X0057999Y0030524D01*
X0058128Y0030743D01*
X0058263Y0030959D01*
X0058403Y0031172D01*
X0058549Y0031381D01*
X0058699Y0031586D01*
X0058854Y0031788D01*
X0058227Y0026288D02*
X0056648Y0026288D01*
X0070196Y0015255D02*
X0070440Y0015333D01*
X0070682Y0015418D01*
X0070921Y0015508D01*
X0071159Y0015604D01*
X0071394Y0015706D01*
X0071627Y0015814D01*
X0071857Y0015927D01*
X0072084Y0016046D01*
X0072308Y0016170D01*
X0072529Y0016300D01*
X0072746Y0016435D01*
X0072961Y0016576D01*
X0073172Y0016722D01*
X0073379Y0016872D01*
X0073582Y0017028D01*
X0073782Y0017189D01*
X0073978Y0017354D01*
X0074169Y0017524D01*
X0074357Y0017699D01*
X0074540Y0017879D01*
X0074718Y0018062D01*
X0074893Y0018251D01*
X0075062Y0018443D01*
X0075227Y0018639D01*
X0075387Y0018840D01*
X0075541Y0019044D01*
X0075691Y0019252D01*
X0075836Y0019463D01*
X0075976Y0019678D01*
X0076110Y0019896D01*
X0076239Y0020118D01*
X0076362Y0020342D01*
X0076480Y0020570D01*
X0076593Y0020800D01*
X0076699Y0021033D01*
X0076800Y0021269D01*
X0076896Y0021507D01*
X0076985Y0021747D01*
X0077068Y0021989D01*
X0077146Y0022234D01*
X0077217Y0022480D01*
X0077283Y0022728D01*
X0077342Y0022977D01*
X0077396Y0023227D01*
X0077443Y0023479D01*
X0077484Y0023732D01*
X0077519Y0023986D01*
X0077548Y0024241D01*
X0077570Y0024496D01*
X0077586Y0024752D01*
X0077596Y0025008D01*
X0077600Y0025264D01*
X0077597Y0025521D01*
X0077589Y0025777D01*
X0077574Y0026033D01*
X0077552Y0026288D01*
X0096606Y0029365D02*
X0096606Y0032367D01*
X0098858Y0030866D02*
X0098858Y0029365D01*
X0098107Y0027763D02*
X0101110Y0027763D01*
X0101110Y0025511D01*
X0100359Y0024761D01*
X0098107Y0024761D01*
X0096606Y0021658D02*
X0101110Y0021658D01*
X0101110Y0020157D02*
X0101110Y0023159D01*
X0098107Y0020157D02*
X0096606Y0021658D01*
X0100359Y0018605D02*
X0101110Y0018605D01*
X0101110Y0017855D01*
X0100359Y0017855D01*
X0100359Y0018605D01*
X0100359Y0016253D02*
X0097357Y0016253D01*
X0100359Y0013251D01*
X0101110Y0014001D01*
X0101110Y0015503D01*
X0100359Y0016253D01*
X0100359Y0013251D02*
X0097357Y0013251D01*
X0096606Y0014001D01*
X0096606Y0015503D01*
X0097357Y0016253D01*
X0096606Y0029365D02*
X0101110Y0029365D01*
X0127846Y0045407D02*
X0132350Y0045407D01*
X0132350Y0043906D02*
X0132350Y0046908D01*
X0131599Y0048510D02*
X0128597Y0051512D01*
X0131599Y0051512D01*
X0132350Y0050762D01*
X0132350Y0049260D01*
X0131599Y0048510D01*
X0128597Y0048510D01*
X0127846Y0049260D01*
X0127846Y0050762D01*
X0128597Y0051512D01*
X0129347Y0053114D02*
X0131599Y0053114D01*
X0132350Y0053864D01*
X0132350Y0056116D01*
X0129347Y0056116D01*
X0130098Y0057718D02*
X0130098Y0059219D01*
X0127846Y0057718D02*
X0127846Y0060720D01*
X0127846Y0057718D02*
X0132350Y0057718D01*
X0127846Y0045407D02*
X0129347Y0043906D01*
X0168793Y0056905D02*
X0168793Y0026196D01*
X0204226Y0026196D01*
X0204226Y0056905D01*
X0168793Y0056905D01*
X0182572Y0044503D02*
X0182572Y0038598D01*
X0202257Y0036629D01*
X0202257Y0033676D02*
X0184541Y0035645D01*
X0184541Y0027771D02*
X0202257Y0029739D01*
X0202257Y0033676D01*
X0202257Y0046472D02*
X0182572Y0044503D01*
X0186509Y0047456D02*
X0202257Y0049424D01*
X0202257Y0053361D01*
X0186509Y0055330D01*
X0187533Y0068538D02*
X0187850Y0068855D01*
X0187850Y0069172D01*
X0187533Y0069489D01*
X0185948Y0069489D01*
X0185948Y0069172D02*
X0185948Y0069806D01*
X0186265Y0070748D02*
X0185948Y0071065D01*
X0185948Y0071699D01*
X0186265Y0072016D01*
X0186582Y0072016D01*
X0187850Y0070748D01*
X0187850Y0072016D01*
X0139099Y0151730D02*
X0136097Y0151730D01*
X0135346Y0152481D01*
X0135346Y0153982D01*
X0136097Y0154732D01*
X0139099Y0151730D01*
X0139850Y0152481D01*
X0139850Y0153982D01*
X0139099Y0154732D01*
X0136097Y0154732D01*
X0139099Y0156334D02*
X0139099Y0157084D01*
X0139850Y0157084D01*
X0139850Y0156334D01*
X0139099Y0156334D01*
X0139850Y0158636D02*
X0139850Y0161638D01*
X0139850Y0160137D02*
X0135346Y0160137D01*
X0136847Y0158636D01*
X0136847Y0163240D02*
X0139099Y0163240D01*
X0139850Y0163990D01*
X0139850Y0166242D01*
X0136847Y0166242D01*
X0137598Y0167844D02*
X0137598Y0169345D01*
X0135346Y0167844D02*
X0135346Y0170846D01*
X0135346Y0167844D02*
X0139850Y0167844D01*
X0125738Y0188123D02*
X0120738Y0193123D01*
X0115738Y0188123D01*
X0125738Y0188123D01*
X0125610Y0188251D02*
X0115866Y0188251D01*
X0116364Y0188749D02*
X0125111Y0188749D01*
X0124613Y0189248D02*
X0116863Y0189248D01*
X0117361Y0189746D02*
X0124114Y0189746D01*
X0123616Y0190245D02*
X0117860Y0190245D01*
X0118358Y0190743D02*
X0123117Y0190743D01*
X0122619Y0191242D02*
X0118857Y0191242D01*
X0119355Y0191740D02*
X0122120Y0191740D01*
X0121622Y0192239D02*
X0119854Y0192239D01*
X0120352Y0192737D02*
X0121123Y0192737D01*
X0145565Y0193178D02*
X0148065Y0193178D01*
X0148065Y0195678D02*
X0153065Y0193178D01*
X0155565Y0193178D01*
X0173484Y0173937D02*
X0177988Y0173937D01*
X0176487Y0173937D02*
X0174985Y0176189D01*
X0176487Y0173937D02*
X0177988Y0176189D01*
X0177237Y0172335D02*
X0174235Y0172335D01*
X0177237Y0169333D01*
X0177988Y0170083D01*
X0177988Y0171585D01*
X0177237Y0172335D01*
X0177237Y0169333D02*
X0174235Y0169333D01*
X0173484Y0170083D01*
X0173484Y0171585D01*
X0174235Y0172335D01*
X0177988Y0167731D02*
X0177988Y0164729D01*
X0177988Y0166230D02*
X0173484Y0166230D01*
X0174985Y0164729D01*
X0169488Y0164631D02*
X0167987Y0163130D01*
X0167987Y0163881D02*
X0167987Y0161629D01*
X0169488Y0161629D02*
X0164984Y0161629D01*
X0164984Y0163881D01*
X0165735Y0164631D01*
X0167236Y0164631D01*
X0167987Y0163881D01*
X0168737Y0166233D02*
X0169488Y0166983D01*
X0169488Y0168485D01*
X0168737Y0169235D01*
X0167987Y0169235D01*
X0167236Y0168485D01*
X0167236Y0167734D01*
X0167236Y0168485D02*
X0166485Y0169235D01*
X0165735Y0169235D01*
X0164984Y0168485D01*
X0164984Y0166983D01*
X0165735Y0166233D01*
X0083762Y0101968D02*
X0083762Y0101334D01*
X0083445Y0101017D01*
X0082811Y0101017D01*
X0082811Y0101968D01*
X0083128Y0102285D01*
X0083445Y0102285D01*
X0083762Y0101968D01*
X0082811Y0101017D02*
X0082177Y0101651D01*
X0081860Y0102285D01*
X0082177Y0100075D02*
X0081860Y0099758D01*
X0081860Y0099124D01*
X0082177Y0098807D01*
X0082494Y0098807D01*
X0082811Y0099124D01*
X0082811Y0099758D01*
X0083128Y0100075D01*
X0083445Y0100075D01*
X0083762Y0099758D01*
X0083762Y0099124D01*
X0083445Y0098807D01*
X0084079Y0099441D02*
X0081543Y0099441D01*
X0081860Y0097865D02*
X0083445Y0097865D01*
X0083762Y0097548D01*
X0083762Y0096914D01*
X0083445Y0096598D01*
X0081860Y0096598D01*
X0070262Y0096597D02*
X0068360Y0096597D01*
X0068994Y0097231D01*
X0068360Y0097865D01*
X0070262Y0097865D01*
X0070262Y0098807D02*
X0068360Y0098807D01*
X0069311Y0098807D02*
X0069311Y0100075D01*
X0068360Y0100075D02*
X0070262Y0100075D01*
X0070262Y0101017D02*
X0070262Y0102285D01*
X0068994Y0102285D02*
X0070262Y0101017D01*
X0068994Y0101017D02*
X0068994Y0102285D01*
X0065401Y0103694D02*
X0065401Y0104445D01*
X0064650Y0105196D01*
X0063149Y0105196D01*
X0062398Y0104445D01*
X0060797Y0104445D02*
X0060797Y0101442D01*
X0060046Y0100692D01*
X0057794Y0100692D01*
X0057794Y0105196D01*
X0060046Y0105196D01*
X0060797Y0104445D01*
X0062398Y0100692D02*
X0065401Y0103694D01*
X0065401Y0100692D02*
X0062398Y0100692D01*
X0056193Y0100692D02*
X0053190Y0100692D01*
X0053190Y0105196D01*
X0056193Y0105196D01*
X0054691Y0102944D02*
X0053190Y0102944D01*
X0051589Y0100692D02*
X0048586Y0100692D01*
X0048586Y0105196D01*
X0040950Y0112538D02*
X0040950Y0116608D01*
X0040950Y0118615D02*
X0040950Y0120650D01*
X0040950Y0119633D02*
X0034845Y0119633D01*
X0034845Y0118615D01*
X0034845Y0116608D02*
X0034845Y0112538D01*
X0040950Y0112538D01*
X0037897Y0112538D02*
X0037897Y0114573D01*
X0031050Y0112538D02*
X0024945Y0112538D01*
X0026980Y0114573D01*
X0024945Y0116608D01*
X0031050Y0116608D01*
X0031050Y0118615D02*
X0031050Y0122686D01*
X0027997Y0124693D02*
X0027997Y0128763D01*
X0025962Y0130770D02*
X0024945Y0131787D01*
X0024945Y0133822D01*
X0025962Y0134840D01*
X0026980Y0134840D01*
X0027997Y0133822D01*
X0029015Y0134840D01*
X0030032Y0134840D01*
X0031050Y0133822D01*
X0031050Y0131787D01*
X0030032Y0130770D01*
X0027997Y0132805D02*
X0027997Y0133822D01*
X0025962Y0136847D02*
X0024945Y0137864D01*
X0024945Y0139900D01*
X0025962Y0140917D01*
X0026980Y0140917D01*
X0027997Y0139900D01*
X0029015Y0140917D01*
X0030032Y0140917D01*
X0031050Y0139900D01*
X0031050Y0137864D01*
X0030032Y0136847D01*
X0027997Y0138882D02*
X0027997Y0139900D01*
X0034845Y0145967D02*
X0035862Y0144950D01*
X0039932Y0144950D01*
X0040950Y0145967D01*
X0040950Y0148002D01*
X0039932Y0149020D01*
X0040950Y0151027D02*
X0034845Y0151027D01*
X0035862Y0149020D02*
X0034845Y0148002D01*
X0034845Y0145967D01*
X0037897Y0151027D02*
X0036880Y0152045D01*
X0036880Y0154080D01*
X0037897Y0155097D01*
X0040950Y0155097D01*
X0039932Y0157104D02*
X0037897Y0157104D01*
X0036880Y0158122D01*
X0036880Y0160157D01*
X0037897Y0161174D01*
X0038915Y0161174D01*
X0038915Y0157104D01*
X0039932Y0157104D02*
X0040950Y0158122D01*
X0040950Y0160157D01*
X0040950Y0163181D02*
X0036880Y0163181D01*
X0036880Y0166234D01*
X0037897Y0167252D01*
X0040950Y0167252D01*
X0039932Y0169259D02*
X0037897Y0169259D01*
X0036880Y0170276D01*
X0036880Y0173329D01*
X0041968Y0173329D01*
X0042985Y0172311D01*
X0042985Y0171294D01*
X0040950Y0170276D02*
X0039932Y0169259D01*
X0040950Y0170276D02*
X0040950Y0173329D01*
X0052370Y0161342D02*
X0053120Y0162093D01*
X0056123Y0159090D01*
X0056874Y0159841D01*
X0056874Y0161342D01*
X0056123Y0162093D01*
X0053120Y0162093D01*
X0052370Y0161342D02*
X0052370Y0159841D01*
X0053120Y0159090D01*
X0056123Y0159090D01*
X0056123Y0157489D02*
X0056874Y0156738D01*
X0056874Y0155237D01*
X0056123Y0154486D01*
X0056123Y0152885D02*
X0055372Y0152885D01*
X0054622Y0152134D01*
X0054622Y0151384D01*
X0054622Y0152134D02*
X0053871Y0152885D01*
X0053120Y0152885D01*
X0052370Y0152134D01*
X0052370Y0150633D01*
X0053120Y0149882D01*
X0056123Y0149882D02*
X0056874Y0150633D01*
X0056874Y0152134D01*
X0056123Y0152885D01*
X0053120Y0154486D02*
X0052370Y0155237D01*
X0052370Y0156738D01*
X0053120Y0157489D01*
X0053871Y0157489D01*
X0054622Y0156738D01*
X0055372Y0157489D01*
X0056123Y0157489D01*
X0054622Y0156738D02*
X0054622Y0155988D01*
X0060870Y0157586D02*
X0060870Y0159838D01*
X0061620Y0160589D01*
X0063122Y0160589D01*
X0063872Y0159838D01*
X0063872Y0157586D01*
X0063872Y0159088D02*
X0065374Y0160589D01*
X0065374Y0162190D02*
X0062371Y0165193D01*
X0061620Y0165193D01*
X0060870Y0164442D01*
X0060870Y0162941D01*
X0061620Y0162190D01*
X0065374Y0162190D02*
X0065374Y0165193D01*
X0065374Y0157586D02*
X0060870Y0157586D01*
X0040950Y0136866D02*
X0037897Y0136866D01*
X0036880Y0135848D01*
X0036880Y0132795D01*
X0040950Y0132795D01*
X0039932Y0130788D02*
X0037897Y0130788D01*
X0036880Y0129771D01*
X0036880Y0127736D01*
X0037897Y0126718D01*
X0039932Y0126718D01*
X0040950Y0127736D01*
X0040950Y0129771D01*
X0039932Y0130788D01*
X0040950Y0124702D02*
X0039932Y0123684D01*
X0035862Y0123684D01*
X0036880Y0122667D02*
X0036880Y0124702D01*
X0031050Y0127745D02*
X0024945Y0127745D01*
X0027997Y0124693D01*
X0024945Y0122686D02*
X0024945Y0118615D01*
X0031050Y0118615D01*
X0027997Y0118615D02*
X0027997Y0120650D01*
X0030674Y0088444D02*
X0032926Y0088444D01*
X0033676Y0087693D01*
X0033676Y0086192D01*
X0032926Y0085441D01*
X0030674Y0085441D01*
X0032175Y0085441D02*
X0033676Y0083940D01*
X0035278Y0086192D02*
X0038280Y0086192D01*
X0037529Y0083940D02*
X0037529Y0088444D01*
X0035278Y0086192D01*
X0030674Y0083940D02*
X0030674Y0088444D01*
X0032238Y0080444D02*
X0030737Y0078942D01*
X0032238Y0080444D02*
X0032238Y0075940D01*
X0030737Y0075940D02*
X0033740Y0075940D01*
X0035341Y0076690D02*
X0038344Y0079693D01*
X0038344Y0076690D01*
X0037593Y0075940D01*
X0036092Y0075940D01*
X0035341Y0076690D01*
X0035341Y0079693D01*
X0036092Y0080444D01*
X0037593Y0080444D01*
X0038344Y0079693D01*
X0039945Y0080444D02*
X0039945Y0075940D01*
X0039945Y0077441D02*
X0042197Y0078942D01*
X0039945Y0077441D02*
X0042197Y0075940D01*
X0041573Y0069030D02*
X0040822Y0068280D01*
X0041573Y0069030D02*
X0043074Y0069030D01*
X0043825Y0068280D01*
X0043825Y0067529D01*
X0043074Y0066778D01*
X0043825Y0066028D01*
X0043825Y0065277D01*
X0043074Y0064526D01*
X0041573Y0064526D01*
X0040822Y0065277D01*
X0039221Y0065277D02*
X0038470Y0064526D01*
X0036969Y0064526D01*
X0036219Y0065277D01*
X0037720Y0066778D02*
X0038470Y0066778D01*
X0039221Y0066028D01*
X0039221Y0065277D01*
X0038470Y0066778D02*
X0039221Y0067529D01*
X0039221Y0068280D01*
X0038470Y0069030D01*
X0036969Y0069030D01*
X0036219Y0068280D01*
X0042324Y0066778D02*
X0043074Y0066778D01*
X0045426Y0065277D02*
X0048429Y0068280D01*
X0048429Y0065277D01*
X0047678Y0064526D01*
X0046177Y0064526D01*
X0045426Y0065277D01*
X0045426Y0068280D01*
X0046177Y0069030D01*
X0047678Y0069030D01*
X0048429Y0068280D01*
X0050028Y0060530D02*
X0050028Y0056026D01*
X0051529Y0056026D02*
X0048526Y0056026D01*
X0046925Y0056026D02*
X0045424Y0057528D01*
X0046174Y0057528D02*
X0043922Y0057528D01*
X0043922Y0056026D02*
X0043922Y0060530D01*
X0046174Y0060530D01*
X0046925Y0059780D01*
X0046925Y0058278D01*
X0046174Y0057528D01*
X0048526Y0059029D02*
X0050028Y0060530D01*
X0043259Y0054290D02*
X0040256Y0054290D01*
X0041758Y0054290D02*
X0041758Y0058794D01*
X0040256Y0057293D01*
X0038655Y0058043D02*
X0038655Y0055041D01*
X0037904Y0054290D01*
X0035652Y0054290D01*
X0035652Y0058794D01*
X0037904Y0058794D01*
X0038655Y0058043D01*
X0034051Y0058794D02*
X0031048Y0058794D01*
X0031048Y0054290D01*
X0034051Y0054290D01*
X0032550Y0056542D02*
X0031048Y0056542D01*
X0029447Y0054290D02*
X0026444Y0054290D01*
X0026444Y0058794D01*
X0014350Y0067855D02*
X0014350Y0068172D01*
X0014033Y0068489D01*
X0012448Y0068489D01*
X0012448Y0068172D02*
X0012448Y0068806D01*
X0012765Y0069748D02*
X0012448Y0070065D01*
X0012448Y0070699D01*
X0012765Y0071016D01*
X0013082Y0071016D01*
X0013399Y0070699D01*
X0013716Y0071016D01*
X0014033Y0071016D01*
X0014350Y0070699D01*
X0014350Y0070065D01*
X0014033Y0069748D01*
X0013399Y0070382D02*
X0013399Y0070699D01*
X0014350Y0067855D02*
X0014033Y0067538D01*
X0068360Y0094705D02*
X0068360Y0095338D01*
X0068677Y0095655D01*
X0068994Y0095655D01*
X0069311Y0095338D01*
X0069311Y0094705D01*
X0068994Y0094388D01*
X0068677Y0094388D01*
X0068360Y0094705D01*
X0069311Y0094705D02*
X0069628Y0094388D01*
X0069945Y0094388D01*
X0070262Y0094705D01*
X0070262Y0095338D01*
X0069945Y0095655D01*
X0069628Y0095655D01*
X0069311Y0095338D01*
X0045588Y0193284D02*
X0043088Y0193284D01*
X0038088Y0195784D01*
X0038088Y0193284D02*
X0035588Y0193284D01*
D12*
X0136600Y0114288D03*
X0137800Y0114488D03*
X0137800Y0116488D03*
X0138400Y0119088D03*
X0138800Y0120488D03*
X0140200Y0120288D03*
X0163200Y0120088D03*
X0165000Y0136488D03*
X0160200Y0144488D03*
X0156200Y0144288D03*
X0143600Y0144888D03*
D13*
X0143700Y0145088D03*
X0148700Y0141088D03*
X0151700Y0146088D03*
X0160100Y0144688D03*
X0159900Y0149488D03*
X0172300Y0125888D03*
X0164700Y0118088D03*
X0163100Y0119488D03*
X0138300Y0117288D03*
X0137900Y0118088D03*
X0137500Y0119288D03*
X0137900Y0116088D03*
X0135700Y0114488D03*
X0134300Y0125488D03*
D14*
X0133900Y0125088D03*
X0139700Y0120888D03*
X0140500Y0120488D03*
X0140500Y0119488D03*
X0139100Y0119488D03*
X0139700Y0118288D03*
X0138900Y0115888D03*
X0136300Y0117088D03*
X0137300Y0119488D03*
X0142500Y0139488D03*
X0142500Y0140688D03*
X0142500Y0140888D03*
X0142500Y0141088D03*
X0143300Y0143888D03*
X0143300Y0144088D03*
X0146300Y0144088D03*
X0151700Y0145888D03*
X0157700Y0140688D03*
X0160900Y0142888D03*
X0160900Y0143088D03*
X0160700Y0143288D03*
X0160700Y0143488D03*
X0161500Y0139488D03*
X0169300Y0125688D03*
X0169500Y0123288D03*
X0165100Y0120688D03*
X0164900Y0119488D03*
X0166300Y0118488D03*
X0165300Y0114488D03*
X0161300Y0119488D03*
X0161700Y0120288D03*
D15*
X0161300Y0120088D03*
X0163100Y0119688D03*
X0163500Y0119088D03*
X0163500Y0117888D03*
X0163700Y0117088D03*
X0163900Y0116888D03*
X0162900Y0116888D03*
X0161700Y0117288D03*
X0162300Y0115088D03*
X0165100Y0118288D03*
X0164900Y0119088D03*
X0164500Y0119888D03*
X0164700Y0120288D03*
X0166300Y0119688D03*
X0166300Y0119488D03*
X0166500Y0118688D03*
X0166300Y0117488D03*
X0167300Y0114888D03*
X0169100Y0125488D03*
X0173900Y0125888D03*
X0163100Y0138088D03*
X0162900Y0138288D03*
X0161500Y0140288D03*
X0161500Y0140488D03*
X0161500Y0140688D03*
X0161300Y0141688D03*
X0159900Y0140088D03*
X0159300Y0140288D03*
X0151700Y0145688D03*
X0149100Y0142688D03*
X0144900Y0140288D03*
X0144300Y0140088D03*
X0142300Y0139288D03*
X0142700Y0142088D03*
X0142700Y0142288D03*
X0142900Y0142688D03*
X0142900Y0142888D03*
X0143100Y0143088D03*
X0143100Y0143288D03*
X0135300Y0143888D03*
X0133100Y0143688D03*
X0132500Y0142688D03*
X0133700Y0124888D03*
X0133300Y0124288D03*
X0137100Y0119688D03*
X0136500Y0118888D03*
X0137300Y0118688D03*
X0136700Y0117888D03*
X0136100Y0117488D03*
X0136100Y0117288D03*
X0136300Y0116488D03*
X0136700Y0115888D03*
X0137100Y0115688D03*
X0137700Y0115888D03*
X0139100Y0116888D03*
X0139700Y0117488D03*
X0140100Y0117288D03*
X0139500Y0116088D03*
X0139500Y0114888D03*
X0141300Y0118888D03*
X0140100Y0119288D03*
X0134500Y0114688D03*
D16*
X0136400Y0116288D03*
X0136200Y0117688D03*
X0136400Y0118488D03*
X0136800Y0119088D03*
X0137800Y0117088D03*
X0137800Y0116888D03*
X0139000Y0114688D03*
X0139600Y0118688D03*
X0141200Y0119088D03*
X0131600Y0119688D03*
X0131200Y0118088D03*
X0142400Y0139888D03*
X0142400Y0140088D03*
X0142400Y0140288D03*
X0142400Y0140488D03*
X0142600Y0141288D03*
X0142600Y0141488D03*
X0142600Y0141688D03*
X0142600Y0141888D03*
X0142800Y0142488D03*
X0143200Y0143488D03*
X0143200Y0143688D03*
X0145600Y0140488D03*
X0146400Y0140688D03*
X0158600Y0140488D03*
X0161400Y0140888D03*
X0161400Y0141088D03*
X0161400Y0141288D03*
X0161400Y0141488D03*
X0161200Y0141888D03*
X0161200Y0142088D03*
X0161200Y0142288D03*
X0161000Y0142488D03*
X0161000Y0142688D03*
X0161600Y0140088D03*
X0161600Y0139888D03*
X0163400Y0137888D03*
X0163600Y0137688D03*
X0163800Y0137488D03*
X0164000Y0137288D03*
X0164200Y0137088D03*
X0171800Y0123688D03*
X0171200Y0121288D03*
X0172000Y0121088D03*
X0172800Y0120888D03*
X0166000Y0117288D03*
X0164800Y0117088D03*
X0164600Y0117888D03*
X0163800Y0117688D03*
X0162800Y0117288D03*
X0163000Y0119288D03*
X0163400Y0120488D03*
X0162000Y0120688D03*
X0164800Y0118888D03*
X0165400Y0118688D03*
X0163000Y0114888D03*
D17*
X0165200Y0114688D03*
X0166800Y0134488D03*
X0159200Y0149088D03*
X0135800Y0143088D03*
X0135200Y0133088D03*
X0135200Y0132888D03*
X0135200Y0132688D03*
X0135200Y0132488D03*
D18*
X0137000Y0125088D03*
X0133600Y0124688D03*
X0132600Y0122288D03*
X0132200Y0122088D03*
X0132000Y0119488D03*
X0131000Y0117888D03*
X0132800Y0115488D03*
X0134000Y0114888D03*
X0136400Y0116088D03*
X0136000Y0116888D03*
X0136000Y0118088D03*
X0136400Y0118688D03*
X0137200Y0119888D03*
X0137600Y0120088D03*
X0138200Y0119688D03*
X0139000Y0118888D03*
X0138600Y0118488D03*
X0138400Y0118288D03*
X0139200Y0116488D03*
X0139800Y0116288D03*
X0140200Y0116488D03*
X0141000Y0117288D03*
X0141200Y0118088D03*
X0141400Y0118688D03*
X0140600Y0118688D03*
X0140200Y0119888D03*
X0138000Y0116288D03*
X0137200Y0116688D03*
X0140000Y0115088D03*
X0140400Y0115288D03*
X0161000Y0118088D03*
X0161000Y0118288D03*
X0161200Y0117888D03*
X0161200Y0117688D03*
X0161400Y0117488D03*
X0162200Y0117488D03*
X0162000Y0116888D03*
X0162400Y0116688D03*
X0161800Y0115288D03*
X0164200Y0117288D03*
X0165000Y0117288D03*
X0165200Y0117488D03*
X0165000Y0118488D03*
X0165800Y0119088D03*
X0166600Y0119088D03*
X0166600Y0118888D03*
X0166600Y0118088D03*
X0166600Y0117888D03*
X0166000Y0118288D03*
X0165800Y0120288D03*
X0163600Y0120288D03*
X0162800Y0120288D03*
X0162000Y0119888D03*
X0161200Y0119888D03*
X0163800Y0118888D03*
X0163800Y0118688D03*
X0167800Y0115088D03*
X0168200Y0115288D03*
X0171200Y0119288D03*
X0171600Y0119488D03*
X0172000Y0119688D03*
X0173000Y0120288D03*
X0171200Y0122888D03*
X0171800Y0123488D03*
X0169000Y0123488D03*
X0168600Y0125288D03*
X0166000Y0125288D03*
X0164600Y0125288D03*
X0162800Y0138488D03*
X0162400Y0138688D03*
X0162200Y0138888D03*
X0161600Y0139288D03*
X0160400Y0139888D03*
X0154200Y0142888D03*
X0143800Y0139888D03*
X0137200Y0144088D03*
X0135800Y0144488D03*
X0134200Y0144688D03*
X0133600Y0143488D03*
D19*
X0134100Y0143688D03*
X0134100Y0143888D03*
X0134700Y0144288D03*
X0134900Y0144088D03*
X0134500Y0144488D03*
X0135900Y0144688D03*
X0136300Y0144088D03*
X0137300Y0144288D03*
X0137500Y0143888D03*
X0137500Y0143688D03*
X0137500Y0143488D03*
X0137500Y0143288D03*
X0133100Y0143088D03*
X0132500Y0141888D03*
X0149100Y0142888D03*
X0154500Y0142688D03*
X0154700Y0142488D03*
X0156900Y0144088D03*
X0161900Y0139088D03*
X0173700Y0126688D03*
X0173900Y0126488D03*
X0172100Y0123288D03*
X0172500Y0122888D03*
X0172500Y0122688D03*
X0171500Y0123088D03*
X0171300Y0122688D03*
X0171300Y0122488D03*
X0171300Y0122288D03*
X0171500Y0121488D03*
X0170700Y0121088D03*
X0170500Y0120688D03*
X0170500Y0120488D03*
X0170500Y0120288D03*
X0170700Y0119688D03*
X0170900Y0119488D03*
X0172300Y0119888D03*
X0172700Y0120088D03*
X0173300Y0120488D03*
X0173300Y0120688D03*
X0170900Y0123288D03*
X0170700Y0123688D03*
X0170100Y0123488D03*
X0168700Y0123688D03*
X0166500Y0125688D03*
X0166300Y0125488D03*
X0166700Y0125888D03*
X0166700Y0126088D03*
X0166300Y0119888D03*
X0165300Y0119888D03*
X0164700Y0119688D03*
X0164100Y0119688D03*
X0164500Y0118688D03*
X0164300Y0118488D03*
X0164300Y0118288D03*
X0165700Y0118888D03*
X0165900Y0117888D03*
X0166100Y0117088D03*
X0166700Y0118288D03*
X0169100Y0115888D03*
X0168900Y0115688D03*
X0168500Y0115488D03*
X0169300Y0116088D03*
X0169500Y0116288D03*
X0169700Y0116488D03*
X0169900Y0116688D03*
X0170100Y0116888D03*
X0170500Y0117488D03*
X0163100Y0116688D03*
X0162700Y0117688D03*
X0162700Y0117888D03*
X0161900Y0117888D03*
X0161900Y0117688D03*
X0161900Y0118088D03*
X0160300Y0116488D03*
X0160500Y0116288D03*
X0160700Y0116088D03*
X0160900Y0115888D03*
X0161100Y0115688D03*
X0161500Y0115488D03*
X0141700Y0116288D03*
X0141500Y0116088D03*
X0141300Y0115888D03*
X0140900Y0115688D03*
X0140700Y0115488D03*
X0140700Y0116888D03*
X0140100Y0116888D03*
X0139700Y0117688D03*
X0139100Y0117688D03*
X0139700Y0118888D03*
X0140300Y0119088D03*
X0140500Y0118888D03*
X0140900Y0119288D03*
X0141300Y0119688D03*
X0141300Y0119888D03*
X0141100Y0120088D03*
X0141500Y0119288D03*
X0141300Y0117888D03*
X0141300Y0117688D03*
X0141100Y0117488D03*
X0140700Y0117688D03*
X0139100Y0116288D03*
X0137300Y0116288D03*
X0136700Y0116888D03*
X0136500Y0116688D03*
X0135900Y0116688D03*
X0135900Y0117888D03*
X0136700Y0118288D03*
X0137300Y0118288D03*
X0133500Y0115088D03*
X0133100Y0115288D03*
X0132500Y0115688D03*
X0132300Y0115888D03*
X0132100Y0116088D03*
X0131900Y0116288D03*
X0131700Y0116488D03*
X0131300Y0117088D03*
X0131100Y0117488D03*
X0130500Y0118288D03*
X0130300Y0118488D03*
X0129900Y0118688D03*
X0129900Y0119288D03*
X0130900Y0120688D03*
X0131100Y0121288D03*
X0131300Y0121688D03*
X0131700Y0122488D03*
X0131300Y0123688D03*
X0133100Y0122488D03*
X0133300Y0122688D03*
X0133500Y0123088D03*
X0135300Y0125088D03*
X0137300Y0125288D03*
X0137500Y0125488D03*
X0137500Y0125888D03*
X0132100Y0119288D03*
X0132100Y0118688D03*
X0131900Y0118288D03*
D20*
X0138100Y0117488D03*
X0139900Y0118088D03*
X0140300Y0117088D03*
X0137900Y0115488D03*
X0136100Y0124888D03*
X0134100Y0125288D03*
X0132900Y0124488D03*
X0142700Y0139688D03*
X0143500Y0144688D03*
X0156700Y0140888D03*
X0161300Y0139688D03*
X0164700Y0136688D03*
X0160300Y0144288D03*
X0163500Y0120688D03*
X0165500Y0120088D03*
X0165300Y0116888D03*
D21*
X0163600Y0116288D03*
X0163400Y0117488D03*
X0162200Y0117088D03*
X0162400Y0118288D03*
X0162200Y0119088D03*
X0161400Y0119288D03*
X0161400Y0119688D03*
X0162000Y0120488D03*
X0163200Y0119888D03*
X0165200Y0120488D03*
X0165200Y0125088D03*
X0173200Y0123688D03*
X0164400Y0136888D03*
X0160600Y0143688D03*
X0160400Y0143888D03*
X0160400Y0144088D03*
X0147400Y0140888D03*
X0143400Y0144288D03*
X0143400Y0144488D03*
X0143800Y0149288D03*
X0131600Y0124688D03*
X0130800Y0119488D03*
X0137600Y0117688D03*
X0138400Y0115688D03*
X0138200Y0120288D03*
D22*
X0150700Y0115888D03*
X0167900Y0130488D03*
X0136500Y0137888D03*
X0136500Y0140288D03*
D23*
X0150800Y0116088D03*
D24*
X0141800Y0116488D03*
X0140400Y0117488D03*
X0140200Y0117688D03*
X0140600Y0118288D03*
X0141000Y0118288D03*
X0141400Y0118288D03*
X0141400Y0119488D03*
X0140800Y0119888D03*
X0139800Y0119088D03*
X0139200Y0119288D03*
X0138800Y0119288D03*
X0138800Y0118688D03*
X0138400Y0118688D03*
X0138200Y0118888D03*
X0138000Y0118688D03*
X0138000Y0118488D03*
X0137800Y0118288D03*
X0137600Y0118488D03*
X0137200Y0118488D03*
X0137400Y0118888D03*
X0137800Y0118888D03*
X0138200Y0119488D03*
X0138400Y0119888D03*
X0138200Y0120088D03*
X0137800Y0119888D03*
X0137800Y0117888D03*
X0138200Y0117888D03*
X0137400Y0117888D03*
X0136800Y0117488D03*
X0136800Y0117288D03*
X0136600Y0118088D03*
X0136000Y0118288D03*
X0139000Y0117088D03*
X0138600Y0116288D03*
X0132200Y0118888D03*
X0132200Y0119088D03*
X0132000Y0118488D03*
X0131000Y0117688D03*
X0131200Y0117288D03*
X0131400Y0116888D03*
X0131600Y0116688D03*
X0129800Y0118888D03*
X0130800Y0119688D03*
X0130800Y0119888D03*
X0130800Y0120088D03*
X0130800Y0120288D03*
X0130800Y0120488D03*
X0131000Y0120888D03*
X0131000Y0121088D03*
X0131200Y0121488D03*
X0131400Y0121888D03*
X0131400Y0122088D03*
X0131600Y0122288D03*
X0132000Y0122288D03*
X0131800Y0122688D03*
X0131600Y0122888D03*
X0131600Y0123088D03*
X0131400Y0123288D03*
X0131400Y0123488D03*
X0131200Y0123888D03*
X0131200Y0124088D03*
X0131000Y0124288D03*
X0131000Y0124488D03*
X0133400Y0122888D03*
X0133600Y0123288D03*
X0133600Y0123488D03*
X0133600Y0123688D03*
X0133600Y0123888D03*
X0133600Y0124088D03*
X0135200Y0125288D03*
X0137600Y0125688D03*
X0132600Y0141688D03*
X0132400Y0142088D03*
X0132200Y0142288D03*
X0132200Y0142488D03*
X0133200Y0142888D03*
X0133000Y0143288D03*
X0133000Y0143488D03*
X0134000Y0144088D03*
X0134000Y0144288D03*
X0134000Y0144488D03*
X0135600Y0144288D03*
X0135600Y0144088D03*
X0136200Y0144288D03*
X0136400Y0143888D03*
X0137000Y0143888D03*
X0137400Y0144488D03*
X0135800Y0144888D03*
X0149200Y0143088D03*
X0153800Y0142488D03*
X0154000Y0142688D03*
X0154200Y0143088D03*
X0164200Y0126488D03*
X0164200Y0126288D03*
X0164200Y0126088D03*
X0164200Y0125888D03*
X0164200Y0125688D03*
X0164400Y0125488D03*
X0168400Y0125088D03*
X0168400Y0124888D03*
X0168400Y0124688D03*
X0168400Y0124488D03*
X0168400Y0124288D03*
X0168400Y0124088D03*
X0168600Y0123888D03*
X0170200Y0123688D03*
X0170800Y0123488D03*
X0171000Y0123088D03*
X0171600Y0123288D03*
X0172200Y0123088D03*
X0172600Y0123088D03*
X0172600Y0123288D03*
X0172600Y0123488D03*
X0173600Y0123888D03*
X0173600Y0124088D03*
X0173400Y0124288D03*
X0173400Y0124488D03*
X0174200Y0125088D03*
X0174200Y0125288D03*
X0174000Y0125488D03*
X0173800Y0125688D03*
X0174200Y0126088D03*
X0174000Y0126288D03*
X0171400Y0122088D03*
X0171400Y0121888D03*
X0171400Y0121688D03*
X0170600Y0120888D03*
X0170600Y0120088D03*
X0170600Y0119888D03*
X0171200Y0119088D03*
X0171200Y0118888D03*
X0171200Y0118688D03*
X0171000Y0118488D03*
X0171000Y0118288D03*
X0170800Y0118088D03*
X0170800Y0117888D03*
X0170600Y0117688D03*
X0170400Y0117288D03*
X0170200Y0117088D03*
X0166600Y0119288D03*
X0166200Y0119288D03*
X0165600Y0119688D03*
X0165800Y0119888D03*
X0164400Y0120088D03*
X0164200Y0120488D03*
X0164200Y0119088D03*
X0163800Y0118288D03*
X0163400Y0118288D03*
X0163200Y0118088D03*
X0162600Y0118088D03*
X0163200Y0118888D03*
X0162400Y0119688D03*
X0162000Y0120088D03*
X0161200Y0119088D03*
X0160800Y0119088D03*
X0164400Y0117488D03*
X0165400Y0117888D03*
X0166000Y0118088D03*
X0165600Y0117088D03*
D25*
X0151100Y0118088D03*
X0150900Y0116288D03*
X0151300Y0123088D03*
X0151300Y0123288D03*
D26*
X0151400Y0123888D03*
X0151000Y0117088D03*
X0151000Y0116488D03*
D27*
X0163900Y0116488D03*
X0172100Y0124688D03*
X0165900Y0135488D03*
X0159900Y0145288D03*
X0143900Y0145488D03*
X0144300Y0148888D03*
X0135500Y0143488D03*
D28*
X0144000Y0145688D03*
X0148000Y0144288D03*
X0151600Y0146288D03*
X0159600Y0149288D03*
X0166200Y0135288D03*
X0171600Y0123888D03*
X0139200Y0116688D03*
D29*
X0151100Y0116688D03*
X0151300Y0124288D03*
D30*
X0161800Y0118888D03*
X0163600Y0121088D03*
X0164800Y0119288D03*
X0165600Y0117688D03*
X0164600Y0116688D03*
X0169400Y0125888D03*
X0172000Y0125288D03*
X0172000Y0125088D03*
X0172200Y0125488D03*
X0172200Y0125688D03*
X0172400Y0126088D03*
X0165400Y0136088D03*
X0165200Y0136288D03*
X0160000Y0144888D03*
X0154600Y0144488D03*
X0144000Y0149088D03*
X0143800Y0145288D03*
X0135800Y0143688D03*
X0134400Y0127288D03*
X0134400Y0127088D03*
X0134400Y0126888D03*
X0134400Y0126688D03*
X0134400Y0126488D03*
X0134400Y0126288D03*
X0134400Y0126088D03*
X0134400Y0125888D03*
X0134400Y0125688D03*
X0139600Y0120088D03*
X0139800Y0119688D03*
D31*
X0151000Y0116888D03*
D32*
X0151100Y0117288D03*
X0151300Y0123688D03*
D33*
X0151000Y0117488D03*
D34*
X0151100Y0117688D03*
X0151300Y0123488D03*
D35*
X0139500Y0120688D03*
X0139700Y0117888D03*
X0155300Y0141088D03*
X0159900Y0145088D03*
X0171700Y0124488D03*
X0171700Y0124288D03*
D36*
X0151000Y0117888D03*
D37*
X0151000Y0118288D03*
D38*
X0140400Y0118488D03*
X0162000Y0118688D03*
X0171600Y0124088D03*
X0165800Y0135688D03*
X0165600Y0135888D03*
D39*
X0151300Y0122888D03*
X0151300Y0122688D03*
X0151300Y0122488D03*
X0151100Y0118888D03*
X0151100Y0118688D03*
X0151100Y0118488D03*
D40*
X0162300Y0118488D03*
X0166300Y0135088D03*
X0159700Y0145488D03*
D41*
X0151300Y0122288D03*
X0151300Y0122088D03*
X0151300Y0121888D03*
X0151100Y0119488D03*
X0151100Y0119288D03*
X0151100Y0119088D03*
D42*
X0151200Y0119688D03*
X0151200Y0119888D03*
X0151200Y0120088D03*
X0151200Y0120288D03*
X0151200Y0120488D03*
X0151200Y0120688D03*
X0151200Y0120888D03*
X0151200Y0121088D03*
X0151200Y0121288D03*
X0151200Y0121488D03*
X0151200Y0121688D03*
D43*
X0163500Y0120888D03*
X0172500Y0124888D03*
X0166500Y0134688D03*
X0159500Y0145888D03*
X0144500Y0148688D03*
X0135300Y0132288D03*
X0135300Y0132088D03*
X0135300Y0131888D03*
X0135500Y0131288D03*
X0135700Y0130888D03*
X0135900Y0130288D03*
D44*
X0151300Y0124088D03*
D45*
X0151300Y0124488D03*
X0151900Y0146688D03*
X0151900Y0146888D03*
X0151900Y0147088D03*
X0151900Y0147288D03*
X0151900Y0147488D03*
X0151900Y0147688D03*
X0151900Y0147888D03*
D46*
X0151300Y0124688D03*
D47*
X0151300Y0124888D03*
D48*
X0151300Y0125088D03*
D49*
X0151200Y0125288D03*
D50*
X0151300Y0125488D03*
D51*
X0151100Y0125688D03*
D52*
X0150800Y0125888D03*
D53*
X0149900Y0126088D03*
D54*
X0135800Y0130488D03*
X0135800Y0130688D03*
X0135600Y0131088D03*
X0135400Y0131488D03*
X0135400Y0131688D03*
X0135400Y0143288D03*
X0144200Y0145888D03*
X0159600Y0145688D03*
X0166400Y0134888D03*
X0169400Y0126088D03*
D55*
X0150200Y0126288D03*
D56*
X0136800Y0128688D03*
X0135800Y0136288D03*
X0136000Y0141488D03*
X0151600Y0142288D03*
X0167800Y0131888D03*
X0170000Y0127488D03*
X0170000Y0127288D03*
X0170000Y0126688D03*
X0170000Y0126488D03*
X0170000Y0126288D03*
D57*
X0150300Y0126488D03*
D58*
X0150400Y0126688D03*
D59*
X0150400Y0126888D03*
D60*
X0136000Y0136688D03*
X0136200Y0141088D03*
X0168000Y0131488D03*
X0170200Y0126888D03*
D61*
X0150500Y0127088D03*
D62*
X0135900Y0136488D03*
X0136100Y0141288D03*
X0167900Y0131688D03*
X0170100Y0127088D03*
D63*
X0150500Y0127288D03*
D64*
X0149300Y0127488D03*
D65*
X0149500Y0127688D03*
X0149700Y0127888D03*
D66*
X0135700Y0136088D03*
X0158100Y0148088D03*
X0170100Y0127888D03*
X0170100Y0127688D03*
D67*
X0156600Y0128688D03*
X0149800Y0128088D03*
D68*
X0135600Y0135888D03*
X0136000Y0141688D03*
X0167800Y0132088D03*
X0170000Y0128288D03*
X0170000Y0128088D03*
D69*
X0150000Y0128288D03*
D70*
X0153300Y0128488D03*
D71*
X0167700Y0132688D03*
X0158500Y0148488D03*
X0136500Y0128888D03*
X0135500Y0135288D03*
X0135500Y0135488D03*
D72*
X0157700Y0128888D03*
D73*
X0150100Y0129888D03*
X0136300Y0129088D03*
X0135300Y0134888D03*
X0135700Y0142288D03*
X0145300Y0148088D03*
X0158700Y0148688D03*
X0167500Y0133088D03*
D74*
X0158100Y0129088D03*
D75*
X0167300Y0133488D03*
X0136100Y0129288D03*
X0135300Y0134288D03*
X0135300Y0134488D03*
X0135500Y0142688D03*
D76*
X0158400Y0129288D03*
D77*
X0167200Y0133688D03*
X0144800Y0146288D03*
X0145000Y0148288D03*
X0135200Y0134088D03*
X0136000Y0129488D03*
D78*
X0152100Y0129488D03*
D79*
X0166900Y0129488D03*
D80*
X0167000Y0134088D03*
X0144800Y0148488D03*
X0135200Y0133688D03*
X0135200Y0133488D03*
X0135200Y0133288D03*
X0136000Y0129688D03*
D81*
X0137200Y0138888D03*
X0150800Y0129688D03*
D82*
X0137300Y0139088D03*
X0167500Y0129688D03*
D83*
X0166900Y0134288D03*
X0159300Y0146088D03*
X0144500Y0146088D03*
X0135700Y0142888D03*
X0135900Y0130088D03*
X0135900Y0129888D03*
D84*
X0137100Y0138688D03*
X0167700Y0129888D03*
D85*
X0167800Y0130088D03*
X0136800Y0138288D03*
X0136800Y0139488D03*
X0136800Y0139688D03*
D86*
X0136700Y0139888D03*
X0136700Y0138088D03*
X0167900Y0130288D03*
D87*
X0167900Y0130688D03*
X0136300Y0137488D03*
D88*
X0136200Y0137288D03*
X0136400Y0140488D03*
X0168000Y0130888D03*
D89*
X0167900Y0131088D03*
X0136100Y0137088D03*
X0136300Y0140688D03*
D90*
X0136100Y0136888D03*
X0167900Y0131288D03*
D91*
X0167700Y0132288D03*
X0158300Y0148288D03*
X0135900Y0141888D03*
D92*
X0135600Y0135688D03*
X0152000Y0141288D03*
X0167600Y0132488D03*
D93*
X0167600Y0132888D03*
X0135800Y0142088D03*
X0135400Y0142488D03*
X0135400Y0135088D03*
D94*
X0135400Y0134688D03*
X0158800Y0146488D03*
X0167400Y0133288D03*
D95*
X0167100Y0133888D03*
X0159100Y0146288D03*
X0158900Y0148888D03*
X0150700Y0142488D03*
X0135300Y0133888D03*
D96*
X0136400Y0137688D03*
D97*
X0136900Y0138488D03*
X0136900Y0139288D03*
D98*
X0136600Y0140088D03*
D99*
X0136200Y0140888D03*
D100*
X0148200Y0146488D03*
D101*
X0134100Y0155198D02*
X0134100Y0172198D01*
X0134098Y0172258D01*
X0134093Y0172319D01*
X0134084Y0172378D01*
X0134071Y0172437D01*
X0134055Y0172496D01*
X0134035Y0172553D01*
X0134012Y0172608D01*
X0133985Y0172663D01*
X0133956Y0172715D01*
X0133923Y0172766D01*
X0133887Y0172815D01*
X0133849Y0172861D01*
X0133807Y0172905D01*
X0133763Y0172947D01*
X0133717Y0172985D01*
X0133668Y0173021D01*
X0133617Y0173054D01*
X0133565Y0173083D01*
X0133510Y0173110D01*
X0133455Y0173133D01*
X0133398Y0173153D01*
X0133339Y0173169D01*
X0133280Y0173182D01*
X0133221Y0173191D01*
X0133160Y0173196D01*
X0133100Y0173198D01*
X0125100Y0173198D01*
X0125040Y0173196D01*
X0124979Y0173191D01*
X0124920Y0173182D01*
X0124861Y0173169D01*
X0124802Y0173153D01*
X0124745Y0173133D01*
X0124690Y0173110D01*
X0124635Y0173083D01*
X0124583Y0173054D01*
X0124532Y0173021D01*
X0124483Y0172985D01*
X0124437Y0172947D01*
X0124393Y0172905D01*
X0124351Y0172861D01*
X0124313Y0172815D01*
X0124277Y0172766D01*
X0124244Y0172715D01*
X0124215Y0172663D01*
X0124188Y0172608D01*
X0124165Y0172553D01*
X0124145Y0172496D01*
X0124129Y0172437D01*
X0124116Y0172378D01*
X0124107Y0172319D01*
X0124102Y0172258D01*
X0124100Y0172198D01*
X0124100Y0155198D01*
X0124102Y0155138D01*
X0124107Y0155077D01*
X0124116Y0155018D01*
X0124129Y0154959D01*
X0124145Y0154900D01*
X0124165Y0154843D01*
X0124188Y0154788D01*
X0124215Y0154733D01*
X0124244Y0154681D01*
X0124277Y0154630D01*
X0124313Y0154581D01*
X0124351Y0154535D01*
X0124393Y0154491D01*
X0124437Y0154449D01*
X0124483Y0154411D01*
X0124532Y0154375D01*
X0124583Y0154342D01*
X0124635Y0154313D01*
X0124690Y0154286D01*
X0124745Y0154263D01*
X0124802Y0154243D01*
X0124861Y0154227D01*
X0124920Y0154214D01*
X0124979Y0154205D01*
X0125040Y0154200D01*
X0125100Y0154198D01*
X0133100Y0154198D01*
X0133160Y0154200D01*
X0133221Y0154205D01*
X0133280Y0154214D01*
X0133339Y0154227D01*
X0133398Y0154243D01*
X0133455Y0154263D01*
X0133510Y0154286D01*
X0133565Y0154313D01*
X0133617Y0154342D01*
X0133668Y0154375D01*
X0133717Y0154411D01*
X0133763Y0154449D01*
X0133807Y0154491D01*
X0133849Y0154535D01*
X0133887Y0154581D01*
X0133923Y0154630D01*
X0133956Y0154681D01*
X0133985Y0154733D01*
X0134012Y0154788D01*
X0134035Y0154843D01*
X0134055Y0154900D01*
X0134071Y0154959D01*
X0134084Y0155018D01*
X0134093Y0155077D01*
X0134098Y0155138D01*
X0134100Y0155198D01*
X0129100Y0162198D02*
X0129100Y0162698D01*
X0129100Y0164698D02*
X0129100Y0165198D01*
X0112966Y0173544D02*
X0112966Y0033544D01*
X0092966Y0033544D01*
X0092966Y0173044D01*
X0092966Y0173544D02*
X0097966Y0173544D01*
X0097968Y0173404D01*
X0097974Y0173264D01*
X0097984Y0173124D01*
X0097997Y0172984D01*
X0098015Y0172845D01*
X0098037Y0172706D01*
X0098062Y0172569D01*
X0098091Y0172431D01*
X0098124Y0172295D01*
X0098161Y0172160D01*
X0098202Y0172026D01*
X0098247Y0171893D01*
X0098295Y0171761D01*
X0098347Y0171631D01*
X0098402Y0171502D01*
X0098461Y0171375D01*
X0098524Y0171249D01*
X0098590Y0171125D01*
X0098659Y0171004D01*
X0098732Y0170884D01*
X0098809Y0170766D01*
X0098888Y0170651D01*
X0098971Y0170537D01*
X0099057Y0170427D01*
X0099146Y0170318D01*
X0099238Y0170212D01*
X0099333Y0170109D01*
X0099430Y0170008D01*
X0099531Y0169911D01*
X0099634Y0169816D01*
X0099740Y0169724D01*
X0099849Y0169635D01*
X0099959Y0169549D01*
X0100073Y0169466D01*
X0100188Y0169387D01*
X0100306Y0169310D01*
X0100426Y0169237D01*
X0100547Y0169168D01*
X0100671Y0169102D01*
X0100797Y0169039D01*
X0100924Y0168980D01*
X0101053Y0168925D01*
X0101183Y0168873D01*
X0101315Y0168825D01*
X0101448Y0168780D01*
X0101582Y0168739D01*
X0101717Y0168702D01*
X0101853Y0168669D01*
X0101991Y0168640D01*
X0102128Y0168615D01*
X0102267Y0168593D01*
X0102406Y0168575D01*
X0102546Y0168562D01*
X0102686Y0168552D01*
X0102826Y0168546D01*
X0102966Y0168544D01*
X0103106Y0168546D01*
X0103246Y0168552D01*
X0103386Y0168562D01*
X0103526Y0168575D01*
X0103665Y0168593D01*
X0103804Y0168615D01*
X0103941Y0168640D01*
X0104079Y0168669D01*
X0104215Y0168702D01*
X0104350Y0168739D01*
X0104484Y0168780D01*
X0104617Y0168825D01*
X0104749Y0168873D01*
X0104879Y0168925D01*
X0105008Y0168980D01*
X0105135Y0169039D01*
X0105261Y0169102D01*
X0105385Y0169168D01*
X0105506Y0169237D01*
X0105626Y0169310D01*
X0105744Y0169387D01*
X0105859Y0169466D01*
X0105973Y0169549D01*
X0106083Y0169635D01*
X0106192Y0169724D01*
X0106298Y0169816D01*
X0106401Y0169911D01*
X0106502Y0170008D01*
X0106599Y0170109D01*
X0106694Y0170212D01*
X0106786Y0170318D01*
X0106875Y0170427D01*
X0106961Y0170537D01*
X0107044Y0170651D01*
X0107123Y0170766D01*
X0107200Y0170884D01*
X0107273Y0171004D01*
X0107342Y0171125D01*
X0107408Y0171249D01*
X0107471Y0171375D01*
X0107530Y0171502D01*
X0107585Y0171631D01*
X0107637Y0171761D01*
X0107685Y0171893D01*
X0107730Y0172026D01*
X0107771Y0172160D01*
X0107808Y0172295D01*
X0107841Y0172431D01*
X0107870Y0172569D01*
X0107895Y0172706D01*
X0107917Y0172845D01*
X0107935Y0172984D01*
X0107948Y0173124D01*
X0107958Y0173264D01*
X0107964Y0173404D01*
X0107966Y0173544D01*
X0112966Y0173544D01*
X0059124Y0166044D02*
X0059124Y0164544D01*
X0058624Y0164044D01*
X0058624Y0145044D01*
X0059124Y0144544D01*
X0059124Y0143044D01*
X0059122Y0142984D01*
X0059117Y0142923D01*
X0059108Y0142864D01*
X0059095Y0142805D01*
X0059079Y0142746D01*
X0059059Y0142689D01*
X0059036Y0142634D01*
X0059009Y0142579D01*
X0058980Y0142527D01*
X0058947Y0142476D01*
X0058911Y0142427D01*
X0058873Y0142381D01*
X0058831Y0142337D01*
X0058787Y0142295D01*
X0058741Y0142257D01*
X0058692Y0142221D01*
X0058641Y0142188D01*
X0058589Y0142159D01*
X0058534Y0142132D01*
X0058479Y0142109D01*
X0058422Y0142089D01*
X0058363Y0142073D01*
X0058304Y0142060D01*
X0058245Y0142051D01*
X0058184Y0142046D01*
X0058124Y0142044D01*
X0051124Y0142044D01*
X0051064Y0142046D01*
X0051003Y0142051D01*
X0050944Y0142060D01*
X0050885Y0142073D01*
X0050826Y0142089D01*
X0050769Y0142109D01*
X0050714Y0142132D01*
X0050659Y0142159D01*
X0050607Y0142188D01*
X0050556Y0142221D01*
X0050507Y0142257D01*
X0050461Y0142295D01*
X0050417Y0142337D01*
X0050375Y0142381D01*
X0050337Y0142427D01*
X0050301Y0142476D01*
X0050268Y0142527D01*
X0050239Y0142579D01*
X0050212Y0142634D01*
X0050189Y0142689D01*
X0050169Y0142746D01*
X0050153Y0142805D01*
X0050140Y0142864D01*
X0050131Y0142923D01*
X0050126Y0142984D01*
X0050124Y0143044D01*
X0050124Y0144544D01*
X0050624Y0145044D01*
X0050624Y0164044D01*
X0050124Y0164544D01*
X0050124Y0166044D01*
X0050126Y0166104D01*
X0050131Y0166165D01*
X0050140Y0166224D01*
X0050153Y0166283D01*
X0050169Y0166342D01*
X0050189Y0166399D01*
X0050212Y0166454D01*
X0050239Y0166509D01*
X0050268Y0166561D01*
X0050301Y0166612D01*
X0050337Y0166661D01*
X0050375Y0166707D01*
X0050417Y0166751D01*
X0050461Y0166793D01*
X0050507Y0166831D01*
X0050556Y0166867D01*
X0050607Y0166900D01*
X0050659Y0166929D01*
X0050714Y0166956D01*
X0050769Y0166979D01*
X0050826Y0166999D01*
X0050885Y0167015D01*
X0050944Y0167028D01*
X0051003Y0167037D01*
X0051064Y0167042D01*
X0051124Y0167044D01*
X0058124Y0167044D01*
X0058184Y0167042D01*
X0058245Y0167037D01*
X0058304Y0167028D01*
X0058363Y0167015D01*
X0058422Y0166999D01*
X0058479Y0166979D01*
X0058534Y0166956D01*
X0058589Y0166929D01*
X0058641Y0166900D01*
X0058692Y0166867D01*
X0058741Y0166831D01*
X0058787Y0166793D01*
X0058831Y0166751D01*
X0058873Y0166707D01*
X0058911Y0166661D01*
X0058947Y0166612D01*
X0058980Y0166561D01*
X0059009Y0166509D01*
X0059036Y0166454D01*
X0059059Y0166399D01*
X0059079Y0166342D01*
X0059095Y0166283D01*
X0059108Y0166224D01*
X0059117Y0166165D01*
X0059122Y0166104D01*
X0059124Y0166044D01*
X0036100Y0095259D02*
X0036194Y0095140D01*
X0036292Y0095024D01*
X0036392Y0094910D01*
X0036496Y0094799D01*
X0036602Y0094691D01*
X0036710Y0094585D01*
X0036822Y0094483D01*
X0036936Y0094383D01*
X0037052Y0094285D01*
X0037171Y0094191D01*
X0037292Y0094100D01*
X0037416Y0094012D01*
X0037542Y0093927D01*
X0037669Y0093846D01*
X0037799Y0093767D01*
X0037931Y0093692D01*
X0038064Y0093621D01*
X0038200Y0093552D01*
X0038337Y0093487D01*
X0038475Y0093426D01*
X0038616Y0093368D01*
X0038757Y0093314D01*
X0038900Y0093263D01*
X0039044Y0093216D01*
X0039189Y0093172D01*
X0039336Y0093133D01*
X0039483Y0093097D01*
X0039631Y0093064D01*
X0039780Y0093036D01*
X0039930Y0093011D01*
X0040080Y0092990D01*
X0040230Y0092973D01*
X0040382Y0092959D01*
X0040533Y0092950D01*
X0040684Y0092944D01*
X0040836Y0092942D01*
X0036036Y0102542D02*
X0036128Y0102661D01*
X0036222Y0102778D01*
X0036320Y0102892D01*
X0036420Y0103004D01*
X0036524Y0103114D01*
X0036629Y0103220D01*
X0036738Y0103325D01*
X0036849Y0103426D01*
X0036963Y0103524D01*
X0037079Y0103620D01*
X0037197Y0103713D01*
X0037318Y0103802D01*
X0037441Y0103889D01*
X0037566Y0103972D01*
X0037693Y0104053D01*
X0037822Y0104130D01*
X0037953Y0104204D01*
X0038086Y0104275D01*
X0038220Y0104342D01*
X0038356Y0104406D01*
X0038494Y0104466D01*
X0038633Y0104523D01*
X0038774Y0104576D01*
X0038916Y0104626D01*
X0039059Y0104673D01*
X0039203Y0104715D01*
X0039348Y0104755D01*
X0039494Y0104790D01*
X0039641Y0104822D01*
X0039789Y0104850D01*
X0039937Y0104874D01*
X0040086Y0104895D01*
X0040236Y0104912D01*
X0040385Y0104925D01*
X0040535Y0104934D01*
X0040686Y0104940D01*
X0040836Y0104942D01*
X0045572Y0095259D02*
X0045478Y0095140D01*
X0045380Y0095024D01*
X0045280Y0094910D01*
X0045176Y0094799D01*
X0045070Y0094691D01*
X0044962Y0094585D01*
X0044850Y0094483D01*
X0044736Y0094383D01*
X0044620Y0094285D01*
X0044501Y0094191D01*
X0044380Y0094100D01*
X0044256Y0094012D01*
X0044130Y0093927D01*
X0044003Y0093846D01*
X0043873Y0093767D01*
X0043741Y0093692D01*
X0043608Y0093621D01*
X0043472Y0093552D01*
X0043335Y0093487D01*
X0043197Y0093426D01*
X0043056Y0093368D01*
X0042915Y0093314D01*
X0042772Y0093263D01*
X0042628Y0093216D01*
X0042483Y0093172D01*
X0042336Y0093133D01*
X0042189Y0093097D01*
X0042041Y0093064D01*
X0041892Y0093036D01*
X0041742Y0093011D01*
X0041592Y0092990D01*
X0041442Y0092973D01*
X0041290Y0092959D01*
X0041139Y0092950D01*
X0040988Y0092944D01*
X0040836Y0092942D01*
X0045718Y0102429D02*
X0045627Y0102554D01*
X0045533Y0102676D01*
X0045435Y0102795D01*
X0045335Y0102912D01*
X0045231Y0103026D01*
X0045125Y0103138D01*
X0045016Y0103246D01*
X0044904Y0103352D01*
X0044789Y0103455D01*
X0044672Y0103555D01*
X0044552Y0103653D01*
X0044430Y0103746D01*
X0044306Y0103837D01*
X0044179Y0103925D01*
X0044050Y0104009D01*
X0043918Y0104090D01*
X0043785Y0104167D01*
X0043650Y0104241D01*
X0043513Y0104312D01*
X0043374Y0104379D01*
X0043234Y0104442D01*
X0043091Y0104502D01*
X0042948Y0104558D01*
X0042803Y0104610D01*
X0042657Y0104659D01*
X0042509Y0104704D01*
X0042361Y0104745D01*
X0042211Y0104782D01*
X0042061Y0104816D01*
X0041909Y0104845D01*
X0041757Y0104871D01*
X0041605Y0104893D01*
X0041452Y0104910D01*
X0041298Y0104924D01*
X0041144Y0104934D01*
X0040990Y0104940D01*
X0040836Y0104942D01*
X0044631Y0082690D02*
X0044131Y0082190D01*
X0025131Y0082190D01*
X0024631Y0082690D01*
X0023131Y0082690D01*
X0023071Y0082688D01*
X0023010Y0082683D01*
X0022951Y0082674D01*
X0022892Y0082661D01*
X0022833Y0082645D01*
X0022776Y0082625D01*
X0022721Y0082602D01*
X0022666Y0082575D01*
X0022614Y0082546D01*
X0022563Y0082513D01*
X0022514Y0082477D01*
X0022468Y0082439D01*
X0022424Y0082397D01*
X0022382Y0082353D01*
X0022344Y0082307D01*
X0022308Y0082258D01*
X0022275Y0082207D01*
X0022246Y0082155D01*
X0022219Y0082100D01*
X0022196Y0082045D01*
X0022176Y0081988D01*
X0022160Y0081929D01*
X0022147Y0081870D01*
X0022138Y0081811D01*
X0022133Y0081750D01*
X0022131Y0081690D01*
X0022131Y0074690D01*
X0022133Y0074630D01*
X0022138Y0074569D01*
X0022147Y0074510D01*
X0022160Y0074451D01*
X0022176Y0074392D01*
X0022196Y0074335D01*
X0022219Y0074280D01*
X0022246Y0074225D01*
X0022275Y0074173D01*
X0022308Y0074122D01*
X0022344Y0074073D01*
X0022382Y0074027D01*
X0022424Y0073983D01*
X0022468Y0073941D01*
X0022514Y0073903D01*
X0022563Y0073867D01*
X0022614Y0073834D01*
X0022666Y0073805D01*
X0022721Y0073778D01*
X0022776Y0073755D01*
X0022833Y0073735D01*
X0022892Y0073719D01*
X0022951Y0073706D01*
X0023010Y0073697D01*
X0023071Y0073692D01*
X0023131Y0073690D01*
X0024631Y0073690D01*
X0025131Y0074190D01*
X0044131Y0074190D01*
X0044631Y0073690D01*
X0046131Y0073690D01*
X0046191Y0073692D01*
X0046252Y0073697D01*
X0046311Y0073706D01*
X0046370Y0073719D01*
X0046429Y0073735D01*
X0046486Y0073755D01*
X0046541Y0073778D01*
X0046596Y0073805D01*
X0046648Y0073834D01*
X0046699Y0073867D01*
X0046748Y0073903D01*
X0046794Y0073941D01*
X0046838Y0073983D01*
X0046880Y0074027D01*
X0046918Y0074073D01*
X0046954Y0074122D01*
X0046987Y0074173D01*
X0047016Y0074225D01*
X0047043Y0074280D01*
X0047066Y0074335D01*
X0047086Y0074392D01*
X0047102Y0074451D01*
X0047115Y0074510D01*
X0047124Y0074569D01*
X0047129Y0074630D01*
X0047131Y0074690D01*
X0047131Y0081690D01*
X0047129Y0081750D01*
X0047124Y0081811D01*
X0047115Y0081870D01*
X0047102Y0081929D01*
X0047086Y0081988D01*
X0047066Y0082045D01*
X0047043Y0082100D01*
X0047016Y0082155D01*
X0046987Y0082207D01*
X0046954Y0082258D01*
X0046918Y0082307D01*
X0046880Y0082353D01*
X0046838Y0082397D01*
X0046794Y0082439D01*
X0046748Y0082477D01*
X0046699Y0082513D01*
X0046648Y0082546D01*
X0046596Y0082575D01*
X0046541Y0082602D01*
X0046486Y0082625D01*
X0046429Y0082645D01*
X0046370Y0082661D01*
X0046311Y0082674D01*
X0046252Y0082683D01*
X0046191Y0082688D01*
X0046131Y0082690D01*
X0044631Y0082690D01*
X0050880Y0071276D02*
X0050380Y0070776D01*
X0031380Y0070776D01*
X0030880Y0071276D01*
X0029380Y0071276D01*
X0029320Y0071274D01*
X0029259Y0071269D01*
X0029200Y0071260D01*
X0029141Y0071247D01*
X0029082Y0071231D01*
X0029025Y0071211D01*
X0028970Y0071188D01*
X0028915Y0071161D01*
X0028863Y0071132D01*
X0028812Y0071099D01*
X0028763Y0071063D01*
X0028717Y0071025D01*
X0028673Y0070983D01*
X0028631Y0070939D01*
X0028593Y0070893D01*
X0028557Y0070844D01*
X0028524Y0070793D01*
X0028495Y0070741D01*
X0028468Y0070686D01*
X0028445Y0070631D01*
X0028425Y0070574D01*
X0028409Y0070515D01*
X0028396Y0070456D01*
X0028387Y0070397D01*
X0028382Y0070336D01*
X0028380Y0070276D01*
X0028380Y0063276D01*
X0028382Y0063216D01*
X0028387Y0063155D01*
X0028396Y0063096D01*
X0028409Y0063037D01*
X0028425Y0062978D01*
X0028445Y0062921D01*
X0028468Y0062866D01*
X0028495Y0062811D01*
X0028524Y0062759D01*
X0028557Y0062708D01*
X0028593Y0062659D01*
X0028631Y0062613D01*
X0028673Y0062569D01*
X0028717Y0062527D01*
X0028763Y0062489D01*
X0028812Y0062453D01*
X0028863Y0062420D01*
X0028915Y0062391D01*
X0028970Y0062364D01*
X0029025Y0062341D01*
X0029082Y0062321D01*
X0029141Y0062305D01*
X0029200Y0062292D01*
X0029259Y0062283D01*
X0029320Y0062278D01*
X0029380Y0062276D01*
X0030880Y0062276D01*
X0031380Y0062776D01*
X0050380Y0062776D01*
X0050880Y0062276D01*
X0052380Y0062276D01*
X0052440Y0062278D01*
X0052501Y0062283D01*
X0052560Y0062292D01*
X0052619Y0062305D01*
X0052678Y0062321D01*
X0052735Y0062341D01*
X0052790Y0062364D01*
X0052845Y0062391D01*
X0052897Y0062420D01*
X0052948Y0062453D01*
X0052997Y0062489D01*
X0053043Y0062527D01*
X0053087Y0062569D01*
X0053129Y0062613D01*
X0053167Y0062659D01*
X0053203Y0062708D01*
X0053236Y0062759D01*
X0053265Y0062811D01*
X0053292Y0062866D01*
X0053315Y0062921D01*
X0053335Y0062978D01*
X0053351Y0063037D01*
X0053364Y0063096D01*
X0053373Y0063155D01*
X0053378Y0063216D01*
X0053380Y0063276D01*
X0053380Y0070276D01*
X0053378Y0070336D01*
X0053373Y0070397D01*
X0053364Y0070456D01*
X0053351Y0070515D01*
X0053335Y0070574D01*
X0053315Y0070631D01*
X0053292Y0070686D01*
X0053265Y0070741D01*
X0053236Y0070793D01*
X0053203Y0070844D01*
X0053167Y0070893D01*
X0053129Y0070939D01*
X0053087Y0070983D01*
X0053043Y0071025D01*
X0052997Y0071063D01*
X0052948Y0071099D01*
X0052897Y0071132D01*
X0052845Y0071161D01*
X0052790Y0071188D01*
X0052735Y0071211D01*
X0052678Y0071231D01*
X0052619Y0071247D01*
X0052560Y0071260D01*
X0052501Y0071269D01*
X0052440Y0071274D01*
X0052380Y0071276D01*
X0050880Y0071276D01*
X0053596Y0053383D02*
X0045596Y0053383D01*
X0045536Y0053381D01*
X0045475Y0053376D01*
X0045416Y0053367D01*
X0045357Y0053354D01*
X0045298Y0053338D01*
X0045241Y0053318D01*
X0045186Y0053295D01*
X0045131Y0053268D01*
X0045079Y0053239D01*
X0045028Y0053206D01*
X0044979Y0053170D01*
X0044933Y0053132D01*
X0044889Y0053090D01*
X0044847Y0053046D01*
X0044809Y0053000D01*
X0044773Y0052951D01*
X0044740Y0052900D01*
X0044711Y0052848D01*
X0044684Y0052793D01*
X0044661Y0052738D01*
X0044641Y0052681D01*
X0044625Y0052622D01*
X0044612Y0052563D01*
X0044603Y0052504D01*
X0044598Y0052443D01*
X0044596Y0052383D01*
X0044596Y0035383D01*
X0044598Y0035323D01*
X0044603Y0035262D01*
X0044612Y0035203D01*
X0044625Y0035144D01*
X0044641Y0035085D01*
X0044661Y0035028D01*
X0044684Y0034973D01*
X0044711Y0034918D01*
X0044740Y0034866D01*
X0044773Y0034815D01*
X0044809Y0034766D01*
X0044847Y0034720D01*
X0044889Y0034676D01*
X0044933Y0034634D01*
X0044979Y0034596D01*
X0045028Y0034560D01*
X0045079Y0034527D01*
X0045131Y0034498D01*
X0045186Y0034471D01*
X0045241Y0034448D01*
X0045298Y0034428D01*
X0045357Y0034412D01*
X0045416Y0034399D01*
X0045475Y0034390D01*
X0045536Y0034385D01*
X0045596Y0034383D01*
X0053596Y0034383D01*
X0053656Y0034385D01*
X0053717Y0034390D01*
X0053776Y0034399D01*
X0053835Y0034412D01*
X0053894Y0034428D01*
X0053951Y0034448D01*
X0054006Y0034471D01*
X0054061Y0034498D01*
X0054113Y0034527D01*
X0054164Y0034560D01*
X0054213Y0034596D01*
X0054259Y0034634D01*
X0054303Y0034676D01*
X0054345Y0034720D01*
X0054383Y0034766D01*
X0054419Y0034815D01*
X0054452Y0034866D01*
X0054481Y0034918D01*
X0054508Y0034973D01*
X0054531Y0035028D01*
X0054551Y0035085D01*
X0054567Y0035144D01*
X0054580Y0035203D01*
X0054589Y0035262D01*
X0054594Y0035323D01*
X0054596Y0035383D01*
X0054596Y0052383D01*
X0054594Y0052443D01*
X0054589Y0052504D01*
X0054580Y0052563D01*
X0054567Y0052622D01*
X0054551Y0052681D01*
X0054531Y0052738D01*
X0054508Y0052793D01*
X0054481Y0052848D01*
X0054452Y0052900D01*
X0054419Y0052951D01*
X0054383Y0053000D01*
X0054345Y0053046D01*
X0054303Y0053090D01*
X0054259Y0053132D01*
X0054213Y0053170D01*
X0054164Y0053206D01*
X0054113Y0053239D01*
X0054061Y0053268D01*
X0054006Y0053295D01*
X0053951Y0053318D01*
X0053894Y0053338D01*
X0053835Y0053354D01*
X0053776Y0053367D01*
X0053717Y0053376D01*
X0053656Y0053381D01*
X0053596Y0053383D01*
X0049596Y0045383D02*
X0049596Y0044883D01*
X0049596Y0042883D02*
X0049596Y0042383D01*
X0041978Y0040544D02*
X0038978Y0043544D01*
X0025978Y0043544D01*
X0022978Y0040544D01*
X0022978Y0016044D01*
X0022980Y0015968D01*
X0022986Y0015892D01*
X0022995Y0015817D01*
X0023009Y0015742D01*
X0023026Y0015668D01*
X0023047Y0015595D01*
X0023071Y0015523D01*
X0023100Y0015452D01*
X0023131Y0015383D01*
X0023166Y0015316D01*
X0023205Y0015251D01*
X0023247Y0015187D01*
X0023292Y0015126D01*
X0023340Y0015067D01*
X0023391Y0015011D01*
X0023445Y0014957D01*
X0023501Y0014906D01*
X0023560Y0014858D01*
X0023621Y0014813D01*
X0023685Y0014771D01*
X0023750Y0014732D01*
X0023817Y0014697D01*
X0023886Y0014666D01*
X0023957Y0014637D01*
X0024029Y0014613D01*
X0024102Y0014592D01*
X0024176Y0014575D01*
X0024251Y0014561D01*
X0024326Y0014552D01*
X0024402Y0014546D01*
X0024478Y0014544D01*
X0040478Y0014544D01*
X0040554Y0014546D01*
X0040630Y0014552D01*
X0040705Y0014561D01*
X0040780Y0014575D01*
X0040854Y0014592D01*
X0040927Y0014613D01*
X0040999Y0014637D01*
X0041070Y0014666D01*
X0041139Y0014697D01*
X0041206Y0014732D01*
X0041271Y0014771D01*
X0041335Y0014813D01*
X0041396Y0014858D01*
X0041455Y0014906D01*
X0041511Y0014957D01*
X0041565Y0015011D01*
X0041616Y0015067D01*
X0041664Y0015126D01*
X0041709Y0015187D01*
X0041751Y0015251D01*
X0041790Y0015316D01*
X0041825Y0015383D01*
X0041856Y0015452D01*
X0041885Y0015523D01*
X0041909Y0015595D01*
X0041930Y0015668D01*
X0041947Y0015742D01*
X0041961Y0015817D01*
X0041970Y0015892D01*
X0041976Y0015968D01*
X0041978Y0016044D01*
X0041978Y0040544D01*
X0037878Y0037344D02*
X0037878Y0034744D01*
X0039078Y0036044D02*
X0036578Y0036044D01*
X0032478Y0035044D02*
X0032478Y0031544D01*
X0037278Y0031544D01*
X0037278Y0029544D01*
X0027678Y0029544D01*
X0027678Y0031544D01*
X0032478Y0031544D01*
X0032478Y0026544D02*
X0032478Y0023044D01*
X0018695Y0046540D02*
X0018543Y0046542D01*
X0018392Y0046548D01*
X0018241Y0046557D01*
X0018089Y0046571D01*
X0017939Y0046588D01*
X0017789Y0046609D01*
X0017639Y0046634D01*
X0017490Y0046662D01*
X0017342Y0046695D01*
X0017195Y0046731D01*
X0017048Y0046770D01*
X0016903Y0046814D01*
X0016759Y0046861D01*
X0016616Y0046912D01*
X0016475Y0046966D01*
X0016334Y0047024D01*
X0016196Y0047085D01*
X0016059Y0047150D01*
X0015923Y0047219D01*
X0015790Y0047290D01*
X0015658Y0047365D01*
X0015528Y0047444D01*
X0015401Y0047525D01*
X0015275Y0047610D01*
X0015151Y0047698D01*
X0015030Y0047789D01*
X0014911Y0047883D01*
X0014795Y0047981D01*
X0014681Y0048081D01*
X0014569Y0048183D01*
X0014461Y0048289D01*
X0014355Y0048397D01*
X0014251Y0048508D01*
X0014151Y0048622D01*
X0014053Y0048738D01*
X0013959Y0048857D01*
X0018694Y0058540D02*
X0018848Y0058538D01*
X0019002Y0058532D01*
X0019156Y0058522D01*
X0019310Y0058508D01*
X0019463Y0058491D01*
X0019615Y0058469D01*
X0019767Y0058443D01*
X0019919Y0058414D01*
X0020069Y0058380D01*
X0020219Y0058343D01*
X0020367Y0058302D01*
X0020515Y0058257D01*
X0020661Y0058208D01*
X0020806Y0058156D01*
X0020949Y0058100D01*
X0021092Y0058040D01*
X0021232Y0057977D01*
X0021371Y0057910D01*
X0021508Y0057839D01*
X0021643Y0057765D01*
X0021776Y0057688D01*
X0021908Y0057607D01*
X0022037Y0057523D01*
X0022164Y0057435D01*
X0022288Y0057344D01*
X0022410Y0057251D01*
X0022530Y0057153D01*
X0022647Y0057053D01*
X0022762Y0056950D01*
X0022874Y0056844D01*
X0022983Y0056736D01*
X0023089Y0056624D01*
X0023193Y0056510D01*
X0023293Y0056393D01*
X0023391Y0056274D01*
X0023485Y0056152D01*
X0023576Y0056027D01*
X0018694Y0058540D02*
X0018544Y0058538D01*
X0018393Y0058532D01*
X0018243Y0058523D01*
X0018094Y0058510D01*
X0017944Y0058493D01*
X0017795Y0058472D01*
X0017647Y0058448D01*
X0017499Y0058420D01*
X0017352Y0058388D01*
X0017206Y0058353D01*
X0017061Y0058313D01*
X0016917Y0058271D01*
X0016774Y0058224D01*
X0016632Y0058174D01*
X0016491Y0058121D01*
X0016352Y0058064D01*
X0016214Y0058004D01*
X0016078Y0057940D01*
X0015944Y0057873D01*
X0015811Y0057802D01*
X0015680Y0057728D01*
X0015551Y0057651D01*
X0015424Y0057570D01*
X0015299Y0057487D01*
X0015176Y0057400D01*
X0015055Y0057311D01*
X0014937Y0057218D01*
X0014821Y0057122D01*
X0014707Y0057024D01*
X0014596Y0056923D01*
X0014487Y0056818D01*
X0014382Y0056712D01*
X0014278Y0056602D01*
X0014178Y0056490D01*
X0014080Y0056376D01*
X0013986Y0056259D01*
X0013894Y0056140D01*
X0018694Y0046540D02*
X0018846Y0046542D01*
X0018997Y0046548D01*
X0019148Y0046557D01*
X0019300Y0046571D01*
X0019450Y0046588D01*
X0019600Y0046609D01*
X0019750Y0046634D01*
X0019899Y0046662D01*
X0020047Y0046695D01*
X0020194Y0046731D01*
X0020341Y0046770D01*
X0020486Y0046814D01*
X0020630Y0046861D01*
X0020773Y0046912D01*
X0020914Y0046966D01*
X0021055Y0047024D01*
X0021193Y0047085D01*
X0021330Y0047150D01*
X0021466Y0047219D01*
X0021599Y0047290D01*
X0021731Y0047365D01*
X0021861Y0047444D01*
X0021988Y0047525D01*
X0022114Y0047610D01*
X0022238Y0047698D01*
X0022359Y0047789D01*
X0022478Y0047883D01*
X0022594Y0047981D01*
X0022708Y0048081D01*
X0022820Y0048183D01*
X0022928Y0048289D01*
X0023034Y0048397D01*
X0023138Y0048508D01*
X0023238Y0048622D01*
X0023336Y0048738D01*
X0023430Y0048857D01*
X0070746Y0051934D02*
X0070746Y0034934D01*
X0070748Y0034874D01*
X0070753Y0034813D01*
X0070762Y0034754D01*
X0070775Y0034695D01*
X0070791Y0034636D01*
X0070811Y0034579D01*
X0070834Y0034524D01*
X0070861Y0034469D01*
X0070890Y0034417D01*
X0070923Y0034366D01*
X0070959Y0034317D01*
X0070997Y0034271D01*
X0071039Y0034227D01*
X0071083Y0034185D01*
X0071129Y0034147D01*
X0071178Y0034111D01*
X0071229Y0034078D01*
X0071281Y0034049D01*
X0071336Y0034022D01*
X0071391Y0033999D01*
X0071448Y0033979D01*
X0071507Y0033963D01*
X0071566Y0033950D01*
X0071625Y0033941D01*
X0071686Y0033936D01*
X0071746Y0033934D01*
X0079746Y0033934D01*
X0079806Y0033936D01*
X0079867Y0033941D01*
X0079926Y0033950D01*
X0079985Y0033963D01*
X0080044Y0033979D01*
X0080101Y0033999D01*
X0080156Y0034022D01*
X0080211Y0034049D01*
X0080263Y0034078D01*
X0080314Y0034111D01*
X0080363Y0034147D01*
X0080409Y0034185D01*
X0080453Y0034227D01*
X0080495Y0034271D01*
X0080533Y0034317D01*
X0080569Y0034366D01*
X0080602Y0034417D01*
X0080631Y0034469D01*
X0080658Y0034524D01*
X0080681Y0034579D01*
X0080701Y0034636D01*
X0080717Y0034695D01*
X0080730Y0034754D01*
X0080739Y0034813D01*
X0080744Y0034874D01*
X0080746Y0034934D01*
X0080746Y0051934D01*
X0080744Y0051994D01*
X0080739Y0052055D01*
X0080730Y0052114D01*
X0080717Y0052173D01*
X0080701Y0052232D01*
X0080681Y0052289D01*
X0080658Y0052344D01*
X0080631Y0052399D01*
X0080602Y0052451D01*
X0080569Y0052502D01*
X0080533Y0052551D01*
X0080495Y0052597D01*
X0080453Y0052641D01*
X0080409Y0052683D01*
X0080363Y0052721D01*
X0080314Y0052757D01*
X0080263Y0052790D01*
X0080211Y0052819D01*
X0080156Y0052846D01*
X0080101Y0052869D01*
X0080044Y0052889D01*
X0079985Y0052905D01*
X0079926Y0052918D01*
X0079867Y0052927D01*
X0079806Y0052932D01*
X0079746Y0052934D01*
X0071746Y0052934D01*
X0071686Y0052932D01*
X0071625Y0052927D01*
X0071566Y0052918D01*
X0071507Y0052905D01*
X0071448Y0052889D01*
X0071391Y0052869D01*
X0071336Y0052846D01*
X0071281Y0052819D01*
X0071229Y0052790D01*
X0071178Y0052757D01*
X0071129Y0052721D01*
X0071083Y0052683D01*
X0071039Y0052641D01*
X0070997Y0052597D01*
X0070959Y0052551D01*
X0070923Y0052502D01*
X0070890Y0052451D01*
X0070861Y0052399D01*
X0070834Y0052344D01*
X0070811Y0052289D01*
X0070791Y0052232D01*
X0070775Y0052173D01*
X0070762Y0052114D01*
X0070753Y0052055D01*
X0070748Y0051994D01*
X0070746Y0051934D01*
X0075746Y0044934D02*
X0075746Y0044434D01*
X0075746Y0042434D02*
X0075746Y0041934D01*
X0086360Y0031501D02*
X0094360Y0031501D01*
X0094420Y0031499D01*
X0094481Y0031494D01*
X0094540Y0031485D01*
X0094599Y0031472D01*
X0094658Y0031456D01*
X0094715Y0031436D01*
X0094770Y0031413D01*
X0094825Y0031386D01*
X0094877Y0031357D01*
X0094928Y0031324D01*
X0094977Y0031288D01*
X0095023Y0031250D01*
X0095067Y0031208D01*
X0095109Y0031164D01*
X0095147Y0031118D01*
X0095183Y0031069D01*
X0095216Y0031018D01*
X0095245Y0030966D01*
X0095272Y0030911D01*
X0095295Y0030856D01*
X0095315Y0030799D01*
X0095331Y0030740D01*
X0095344Y0030681D01*
X0095353Y0030622D01*
X0095358Y0030561D01*
X0095360Y0030501D01*
X0095360Y0013501D01*
X0095358Y0013441D01*
X0095353Y0013380D01*
X0095344Y0013321D01*
X0095331Y0013262D01*
X0095315Y0013203D01*
X0095295Y0013146D01*
X0095272Y0013091D01*
X0095245Y0013036D01*
X0095216Y0012984D01*
X0095183Y0012933D01*
X0095147Y0012884D01*
X0095109Y0012838D01*
X0095067Y0012794D01*
X0095023Y0012752D01*
X0094977Y0012714D01*
X0094928Y0012678D01*
X0094877Y0012645D01*
X0094825Y0012616D01*
X0094770Y0012589D01*
X0094715Y0012566D01*
X0094658Y0012546D01*
X0094599Y0012530D01*
X0094540Y0012517D01*
X0094481Y0012508D01*
X0094420Y0012503D01*
X0094360Y0012501D01*
X0086360Y0012501D01*
X0086300Y0012503D01*
X0086239Y0012508D01*
X0086180Y0012517D01*
X0086121Y0012530D01*
X0086062Y0012546D01*
X0086005Y0012566D01*
X0085950Y0012589D01*
X0085895Y0012616D01*
X0085843Y0012645D01*
X0085792Y0012678D01*
X0085743Y0012714D01*
X0085697Y0012752D01*
X0085653Y0012794D01*
X0085611Y0012838D01*
X0085573Y0012884D01*
X0085537Y0012933D01*
X0085504Y0012984D01*
X0085475Y0013036D01*
X0085448Y0013091D01*
X0085425Y0013146D01*
X0085405Y0013203D01*
X0085389Y0013262D01*
X0085376Y0013321D01*
X0085367Y0013380D01*
X0085362Y0013441D01*
X0085360Y0013501D01*
X0085360Y0030501D01*
X0085362Y0030561D01*
X0085367Y0030622D01*
X0085376Y0030681D01*
X0085389Y0030740D01*
X0085405Y0030799D01*
X0085425Y0030856D01*
X0085448Y0030911D01*
X0085475Y0030966D01*
X0085504Y0031018D01*
X0085537Y0031069D01*
X0085573Y0031118D01*
X0085611Y0031164D01*
X0085653Y0031208D01*
X0085697Y0031250D01*
X0085743Y0031288D01*
X0085792Y0031324D01*
X0085843Y0031357D01*
X0085895Y0031386D01*
X0085950Y0031413D01*
X0086005Y0031436D01*
X0086062Y0031456D01*
X0086121Y0031472D01*
X0086180Y0031485D01*
X0086239Y0031494D01*
X0086300Y0031499D01*
X0086360Y0031501D01*
X0090360Y0023501D02*
X0090360Y0023001D01*
X0090360Y0021001D02*
X0090360Y0020501D01*
X0126100Y0064072D02*
X0142100Y0064072D01*
X0142176Y0064074D01*
X0142252Y0064080D01*
X0142327Y0064089D01*
X0142402Y0064103D01*
X0142476Y0064120D01*
X0142549Y0064141D01*
X0142621Y0064165D01*
X0142692Y0064194D01*
X0142761Y0064225D01*
X0142828Y0064260D01*
X0142893Y0064299D01*
X0142957Y0064341D01*
X0143018Y0064386D01*
X0143077Y0064434D01*
X0143133Y0064485D01*
X0143187Y0064539D01*
X0143238Y0064595D01*
X0143286Y0064654D01*
X0143331Y0064715D01*
X0143373Y0064779D01*
X0143412Y0064844D01*
X0143447Y0064911D01*
X0143478Y0064980D01*
X0143507Y0065051D01*
X0143531Y0065123D01*
X0143552Y0065196D01*
X0143569Y0065270D01*
X0143583Y0065345D01*
X0143592Y0065420D01*
X0143598Y0065496D01*
X0143600Y0065572D01*
X0143600Y0090072D01*
X0140600Y0093072D01*
X0127600Y0093072D01*
X0124600Y0090072D01*
X0124600Y0065572D01*
X0124602Y0065496D01*
X0124608Y0065420D01*
X0124617Y0065345D01*
X0124631Y0065270D01*
X0124648Y0065196D01*
X0124669Y0065123D01*
X0124693Y0065051D01*
X0124722Y0064980D01*
X0124753Y0064911D01*
X0124788Y0064844D01*
X0124827Y0064779D01*
X0124869Y0064715D01*
X0124914Y0064654D01*
X0124962Y0064595D01*
X0125013Y0064539D01*
X0125067Y0064485D01*
X0125123Y0064434D01*
X0125182Y0064386D01*
X0125243Y0064341D01*
X0125307Y0064299D01*
X0125372Y0064260D01*
X0125439Y0064225D01*
X0125508Y0064194D01*
X0125579Y0064165D01*
X0125651Y0064141D01*
X0125724Y0064120D01*
X0125798Y0064103D01*
X0125873Y0064089D01*
X0125948Y0064080D01*
X0126024Y0064074D01*
X0126100Y0064072D01*
X0134100Y0072572D02*
X0134100Y0076072D01*
X0138900Y0079072D02*
X0138900Y0081072D01*
X0134100Y0081072D01*
X0129300Y0081072D01*
X0129300Y0079072D01*
X0138900Y0079072D01*
X0134100Y0081072D02*
X0134100Y0084572D01*
X0138200Y0085572D02*
X0140700Y0085572D01*
X0139500Y0084272D02*
X0139500Y0086872D01*
X0172238Y0160879D02*
X0179238Y0160879D01*
X0179298Y0160881D01*
X0179359Y0160886D01*
X0179418Y0160895D01*
X0179477Y0160908D01*
X0179536Y0160924D01*
X0179593Y0160944D01*
X0179648Y0160967D01*
X0179703Y0160994D01*
X0179755Y0161023D01*
X0179806Y0161056D01*
X0179855Y0161092D01*
X0179901Y0161130D01*
X0179945Y0161172D01*
X0179987Y0161216D01*
X0180025Y0161262D01*
X0180061Y0161311D01*
X0180094Y0161362D01*
X0180123Y0161414D01*
X0180150Y0161469D01*
X0180173Y0161524D01*
X0180193Y0161581D01*
X0180209Y0161640D01*
X0180222Y0161699D01*
X0180231Y0161758D01*
X0180236Y0161819D01*
X0180238Y0161879D01*
X0180238Y0163379D01*
X0179738Y0163879D01*
X0179738Y0182879D01*
X0180238Y0183379D01*
X0180238Y0184879D01*
X0180236Y0184939D01*
X0180231Y0185000D01*
X0180222Y0185059D01*
X0180209Y0185118D01*
X0180193Y0185177D01*
X0180173Y0185234D01*
X0180150Y0185289D01*
X0180123Y0185344D01*
X0180094Y0185396D01*
X0180061Y0185447D01*
X0180025Y0185496D01*
X0179987Y0185542D01*
X0179945Y0185586D01*
X0179901Y0185628D01*
X0179855Y0185666D01*
X0179806Y0185702D01*
X0179755Y0185735D01*
X0179703Y0185764D01*
X0179648Y0185791D01*
X0179593Y0185814D01*
X0179536Y0185834D01*
X0179477Y0185850D01*
X0179418Y0185863D01*
X0179359Y0185872D01*
X0179298Y0185877D01*
X0179238Y0185879D01*
X0172238Y0185879D01*
X0172178Y0185877D01*
X0172117Y0185872D01*
X0172058Y0185863D01*
X0171999Y0185850D01*
X0171940Y0185834D01*
X0171883Y0185814D01*
X0171828Y0185791D01*
X0171773Y0185764D01*
X0171721Y0185735D01*
X0171670Y0185702D01*
X0171621Y0185666D01*
X0171575Y0185628D01*
X0171531Y0185586D01*
X0171489Y0185542D01*
X0171451Y0185496D01*
X0171415Y0185447D01*
X0171382Y0185396D01*
X0171353Y0185344D01*
X0171326Y0185289D01*
X0171303Y0185234D01*
X0171283Y0185177D01*
X0171267Y0185118D01*
X0171254Y0185059D01*
X0171245Y0185000D01*
X0171240Y0184939D01*
X0171238Y0184879D01*
X0171238Y0183379D01*
X0171738Y0182879D01*
X0171738Y0163879D01*
X0171238Y0163379D01*
X0171238Y0161879D01*
X0171240Y0161819D01*
X0171245Y0161758D01*
X0171254Y0161699D01*
X0171267Y0161640D01*
X0171283Y0161581D01*
X0171303Y0161524D01*
X0171326Y0161469D01*
X0171353Y0161414D01*
X0171382Y0161362D01*
X0171415Y0161311D01*
X0171451Y0161262D01*
X0171489Y0161216D01*
X0171531Y0161172D01*
X0171575Y0161130D01*
X0171621Y0161092D01*
X0171670Y0161056D01*
X0171721Y0161023D01*
X0171773Y0160994D01*
X0171828Y0160967D01*
X0171883Y0160944D01*
X0171940Y0160924D01*
X0171999Y0160908D01*
X0172058Y0160895D01*
X0172117Y0160886D01*
X0172178Y0160881D01*
X0172238Y0160879D01*
D102*
X0159815Y0177178D02*
X0159815Y0181181D01*
X0161149Y0181181D02*
X0158480Y0181181D01*
X0156545Y0181181D02*
X0153876Y0181181D01*
X0153876Y0177178D01*
X0156545Y0177178D01*
X0155211Y0179180D02*
X0153876Y0179180D01*
X0151941Y0178512D02*
X0151941Y0177845D01*
X0151274Y0177178D01*
X0149940Y0177178D01*
X0149272Y0177845D01*
X0149940Y0179180D02*
X0151274Y0179180D01*
X0151941Y0178512D01*
X0151941Y0180514D02*
X0151274Y0181181D01*
X0149940Y0181181D01*
X0149272Y0180514D01*
X0149272Y0179847D01*
X0149940Y0179180D01*
X0147337Y0181181D02*
X0144668Y0181181D01*
X0144668Y0177178D01*
X0147337Y0177178D01*
X0146003Y0179180D02*
X0144668Y0179180D01*
X0142734Y0179180D02*
X0142734Y0180514D01*
X0142066Y0181181D01*
X0140065Y0181181D01*
X0140065Y0177178D01*
X0140065Y0178512D02*
X0142066Y0178512D01*
X0142734Y0179180D01*
X0141399Y0178512D02*
X0142734Y0177178D01*
X0132100Y0164698D02*
X0129100Y0164698D01*
X0126100Y0164698D01*
X0126100Y0162698D02*
X0129100Y0162698D01*
X0132100Y0162698D01*
X0048569Y0177784D02*
X0047234Y0179119D01*
X0047902Y0179119D02*
X0045900Y0179119D01*
X0045900Y0177784D02*
X0045900Y0181788D01*
X0047902Y0181788D01*
X0048569Y0181120D01*
X0048569Y0179786D01*
X0047902Y0179119D01*
X0043965Y0177784D02*
X0041296Y0177784D01*
X0041296Y0181788D01*
X0043965Y0181788D01*
X0042631Y0179786D02*
X0041296Y0179786D01*
X0039361Y0179119D02*
X0039361Y0178451D01*
X0038694Y0177784D01*
X0037359Y0177784D01*
X0036692Y0178451D01*
X0037359Y0179786D02*
X0036692Y0180453D01*
X0036692Y0181120D01*
X0037359Y0181788D01*
X0038694Y0181788D01*
X0039361Y0181120D01*
X0038694Y0179786D02*
X0039361Y0179119D01*
X0038694Y0179786D02*
X0037359Y0179786D01*
X0034757Y0178451D02*
X0034090Y0177784D01*
X0032755Y0177784D01*
X0032088Y0178451D01*
X0032088Y0181788D01*
X0034757Y0181788D02*
X0034757Y0178451D01*
X0033890Y0094973D02*
X0033989Y0094804D01*
X0034093Y0094638D01*
X0034200Y0094474D01*
X0034311Y0094313D01*
X0034426Y0094155D01*
X0034545Y0094000D01*
X0034668Y0093847D01*
X0034794Y0093698D01*
X0034924Y0093552D01*
X0035058Y0093409D01*
X0035195Y0093269D01*
X0035335Y0093133D01*
X0035479Y0093000D01*
X0035626Y0092871D01*
X0035776Y0092745D01*
X0035929Y0092624D01*
X0036085Y0092505D01*
X0036244Y0092391D01*
X0036405Y0092281D01*
X0036570Y0092175D01*
X0036736Y0092072D01*
X0036906Y0091974D01*
X0037077Y0091880D01*
X0037251Y0091790D01*
X0037427Y0091705D01*
X0037605Y0091623D01*
X0037785Y0091547D01*
X0037967Y0091474D01*
X0038150Y0091406D01*
X0038335Y0091343D01*
X0038522Y0091284D01*
X0038710Y0091230D01*
X0038899Y0091180D01*
X0039089Y0091135D01*
X0039281Y0091095D01*
X0039473Y0091059D01*
X0039666Y0091028D01*
X0039860Y0091002D01*
X0040055Y0090980D01*
X0040250Y0090964D01*
X0040445Y0090952D01*
X0040641Y0090944D01*
X0040836Y0090942D01*
X0033777Y0102707D02*
X0033870Y0102875D01*
X0033966Y0103041D01*
X0034066Y0103205D01*
X0034171Y0103366D01*
X0034279Y0103525D01*
X0034391Y0103681D01*
X0034507Y0103835D01*
X0034626Y0103985D01*
X0034749Y0104133D01*
X0034875Y0104278D01*
X0035005Y0104419D01*
X0035138Y0104558D01*
X0035275Y0104693D01*
X0035415Y0104825D01*
X0035557Y0104953D01*
X0035703Y0105078D01*
X0035852Y0105200D01*
X0036004Y0105318D01*
X0036158Y0105432D01*
X0036316Y0105542D01*
X0036475Y0105649D01*
X0036638Y0105752D01*
X0036803Y0105851D01*
X0036970Y0105946D01*
X0037139Y0106036D01*
X0037310Y0106123D01*
X0037484Y0106206D01*
X0037659Y0106284D01*
X0037837Y0106358D01*
X0038016Y0106428D01*
X0038196Y0106494D01*
X0038378Y0106555D01*
X0038562Y0106612D01*
X0038747Y0106664D01*
X0038933Y0106712D01*
X0039120Y0106756D01*
X0039308Y0106795D01*
X0039497Y0106829D01*
X0039687Y0106859D01*
X0039877Y0106884D01*
X0040068Y0106905D01*
X0040260Y0106921D01*
X0040452Y0106933D01*
X0040644Y0106940D01*
X0040836Y0106942D01*
X0046943Y0093774D02*
X0046816Y0093628D01*
X0046687Y0093486D01*
X0046553Y0093346D01*
X0046417Y0093210D01*
X0046277Y0093077D01*
X0046134Y0092947D01*
X0045987Y0092821D01*
X0045838Y0092699D01*
X0045686Y0092580D01*
X0045531Y0092465D01*
X0045374Y0092353D01*
X0045214Y0092246D01*
X0045051Y0092142D01*
X0044885Y0092043D01*
X0044718Y0091947D01*
X0044548Y0091855D01*
X0044376Y0091768D01*
X0044202Y0091684D01*
X0044026Y0091605D01*
X0043848Y0091531D01*
X0043668Y0091460D01*
X0043487Y0091394D01*
X0043304Y0091332D01*
X0043120Y0091275D01*
X0042934Y0091222D01*
X0042747Y0091174D01*
X0042559Y0091130D01*
X0042370Y0091091D01*
X0042180Y0091056D01*
X0041990Y0091026D01*
X0041799Y0091000D01*
X0041607Y0090979D01*
X0041414Y0090963D01*
X0041222Y0090951D01*
X0041029Y0090944D01*
X0040836Y0090942D01*
X0046982Y0104064D02*
X0046855Y0104212D01*
X0046725Y0104357D01*
X0046592Y0104498D01*
X0046455Y0104637D01*
X0046315Y0104772D01*
X0046171Y0104903D01*
X0046024Y0105031D01*
X0045875Y0105156D01*
X0045722Y0105277D01*
X0045567Y0105394D01*
X0045408Y0105507D01*
X0045247Y0105616D01*
X0045083Y0105721D01*
X0044917Y0105823D01*
X0044748Y0105920D01*
X0044578Y0106013D01*
X0044404Y0106102D01*
X0044229Y0106187D01*
X0044052Y0106267D01*
X0043873Y0106343D01*
X0043692Y0106415D01*
X0043509Y0106482D01*
X0043325Y0106545D01*
X0043139Y0106603D01*
X0042952Y0106657D01*
X0042764Y0106706D01*
X0042574Y0106751D01*
X0042384Y0106791D01*
X0042192Y0106826D01*
X0042000Y0106857D01*
X0041807Y0106883D01*
X0041613Y0106904D01*
X0041419Y0106921D01*
X0041225Y0106933D01*
X0041031Y0106940D01*
X0040836Y0106942D01*
X0018695Y0060540D02*
X0018503Y0060538D01*
X0018311Y0060531D01*
X0018119Y0060519D01*
X0017927Y0060503D01*
X0017736Y0060482D01*
X0017546Y0060457D01*
X0017356Y0060427D01*
X0017167Y0060393D01*
X0016979Y0060354D01*
X0016792Y0060310D01*
X0016606Y0060262D01*
X0016421Y0060210D01*
X0016237Y0060153D01*
X0016055Y0060092D01*
X0015875Y0060026D01*
X0015696Y0059956D01*
X0015518Y0059882D01*
X0015343Y0059804D01*
X0015169Y0059721D01*
X0014998Y0059634D01*
X0014829Y0059544D01*
X0014662Y0059449D01*
X0014497Y0059350D01*
X0014334Y0059247D01*
X0014175Y0059140D01*
X0014017Y0059030D01*
X0013863Y0058916D01*
X0013711Y0058798D01*
X0013562Y0058676D01*
X0013416Y0058551D01*
X0013274Y0058423D01*
X0013134Y0058291D01*
X0012997Y0058156D01*
X0012864Y0058017D01*
X0012734Y0057876D01*
X0012608Y0057731D01*
X0012485Y0057583D01*
X0012366Y0057433D01*
X0012250Y0057279D01*
X0012138Y0057123D01*
X0012030Y0056964D01*
X0011925Y0056803D01*
X0011825Y0056639D01*
X0011729Y0056473D01*
X0011636Y0056305D01*
X0011748Y0048571D02*
X0011847Y0048402D01*
X0011951Y0048236D01*
X0012058Y0048072D01*
X0012169Y0047911D01*
X0012284Y0047753D01*
X0012403Y0047598D01*
X0012526Y0047445D01*
X0012652Y0047296D01*
X0012782Y0047150D01*
X0012916Y0047007D01*
X0013053Y0046867D01*
X0013193Y0046731D01*
X0013337Y0046598D01*
X0013484Y0046469D01*
X0013634Y0046343D01*
X0013787Y0046222D01*
X0013943Y0046103D01*
X0014102Y0045989D01*
X0014263Y0045879D01*
X0014428Y0045773D01*
X0014594Y0045670D01*
X0014764Y0045572D01*
X0014935Y0045478D01*
X0015109Y0045388D01*
X0015285Y0045303D01*
X0015463Y0045221D01*
X0015643Y0045145D01*
X0015825Y0045072D01*
X0016008Y0045004D01*
X0016193Y0044941D01*
X0016380Y0044882D01*
X0016568Y0044828D01*
X0016757Y0044778D01*
X0016947Y0044733D01*
X0017139Y0044693D01*
X0017331Y0044657D01*
X0017524Y0044626D01*
X0017718Y0044600D01*
X0017913Y0044578D01*
X0018108Y0044562D01*
X0018303Y0044550D01*
X0018499Y0044542D01*
X0018694Y0044540D01*
X0018695Y0044540D02*
X0018888Y0044542D01*
X0019081Y0044549D01*
X0019273Y0044561D01*
X0019466Y0044577D01*
X0019658Y0044598D01*
X0019849Y0044624D01*
X0020039Y0044654D01*
X0020229Y0044689D01*
X0020418Y0044728D01*
X0020606Y0044772D01*
X0020793Y0044820D01*
X0020979Y0044873D01*
X0021163Y0044930D01*
X0021346Y0044992D01*
X0021527Y0045058D01*
X0021707Y0045129D01*
X0021885Y0045203D01*
X0022061Y0045282D01*
X0022235Y0045366D01*
X0022407Y0045453D01*
X0022577Y0045545D01*
X0022744Y0045641D01*
X0022910Y0045740D01*
X0023073Y0045844D01*
X0023233Y0045951D01*
X0023390Y0046063D01*
X0023545Y0046178D01*
X0023697Y0046297D01*
X0023846Y0046419D01*
X0023993Y0046545D01*
X0024136Y0046675D01*
X0024276Y0046808D01*
X0024412Y0046944D01*
X0024546Y0047084D01*
X0024675Y0047226D01*
X0024802Y0047372D01*
X0024841Y0057662D02*
X0024714Y0057810D01*
X0024584Y0057955D01*
X0024451Y0058096D01*
X0024314Y0058235D01*
X0024174Y0058370D01*
X0024030Y0058501D01*
X0023883Y0058629D01*
X0023734Y0058754D01*
X0023581Y0058875D01*
X0023426Y0058992D01*
X0023267Y0059105D01*
X0023106Y0059214D01*
X0022942Y0059319D01*
X0022776Y0059421D01*
X0022607Y0059518D01*
X0022437Y0059611D01*
X0022263Y0059700D01*
X0022088Y0059785D01*
X0021911Y0059865D01*
X0021732Y0059941D01*
X0021551Y0060013D01*
X0021368Y0060080D01*
X0021184Y0060143D01*
X0020998Y0060201D01*
X0020811Y0060255D01*
X0020623Y0060304D01*
X0020433Y0060349D01*
X0020243Y0060389D01*
X0020051Y0060424D01*
X0019859Y0060455D01*
X0019666Y0060481D01*
X0019472Y0060502D01*
X0019278Y0060519D01*
X0019084Y0060531D01*
X0018890Y0060538D01*
X0018695Y0060540D01*
X0046596Y0044883D02*
X0049596Y0044883D01*
X0052596Y0044883D01*
X0052596Y0042883D02*
X0049596Y0042883D01*
X0046596Y0042883D01*
X0072746Y0042434D02*
X0075746Y0042434D01*
X0078746Y0042434D01*
X0078746Y0044434D02*
X0075746Y0044434D01*
X0072746Y0044434D01*
X0087360Y0023001D02*
X0090360Y0023001D01*
X0093360Y0023001D01*
X0093360Y0021001D02*
X0090360Y0021001D01*
X0087360Y0021001D01*
D103*
X0032478Y0027044D03*
X0134100Y0076572D03*
D104*
X0055080Y0066776D03*
X0048831Y0078190D03*
X0026680Y0066776D03*
X0020431Y0078190D03*
D105*
X0054624Y0140344D03*
X0054624Y0168744D03*
X0175738Y0159179D03*
X0175738Y0187579D03*
D106*
X0105916Y0162601D02*
X0105916Y0159448D01*
X0099611Y0159448D01*
X0099611Y0162601D01*
X0100662Y0163652D01*
X0101713Y0163652D01*
X0102763Y0162601D01*
X0102763Y0159448D01*
X0102763Y0162601D02*
X0103814Y0163652D01*
X0104865Y0163652D01*
X0105916Y0162601D01*
X0104865Y0157207D02*
X0103814Y0157207D01*
X0102763Y0156156D01*
X0102763Y0154054D01*
X0101713Y0153003D01*
X0100662Y0153003D01*
X0099611Y0154054D01*
X0099611Y0156156D01*
X0100662Y0157207D01*
X0101713Y0157207D01*
X0102763Y0156156D01*
X0102763Y0154054D02*
X0103814Y0153003D01*
X0104865Y0153003D01*
X0105916Y0154054D01*
X0105916Y0156156D01*
X0104865Y0157207D01*
X0105916Y0150761D02*
X0105916Y0146557D01*
X0101713Y0150761D01*
X0100662Y0150761D01*
X0099611Y0149710D01*
X0099611Y0147608D01*
X0100662Y0146557D01*
X0099611Y0142214D02*
X0105916Y0142214D01*
X0105916Y0140112D02*
X0105916Y0144316D01*
X0101713Y0140112D02*
X0099611Y0142214D01*
X0099611Y0137870D02*
X0099611Y0133666D01*
X0105916Y0133666D01*
X0104865Y0131425D02*
X0105916Y0130374D01*
X0105916Y0128272D01*
X0104865Y0127221D01*
X0100662Y0131425D01*
X0104865Y0131425D01*
X0102763Y0133666D02*
X0102763Y0135768D01*
X0100662Y0131425D02*
X0099611Y0130374D01*
X0099611Y0128272D01*
X0100662Y0127221D01*
X0104865Y0127221D01*
X0104865Y0124979D02*
X0102763Y0124979D01*
X0101713Y0123928D01*
X0101713Y0122877D01*
X0102763Y0120775D01*
X0099611Y0120775D01*
X0099611Y0124979D01*
X0104865Y0124979D02*
X0105916Y0123928D01*
X0105916Y0121826D01*
X0104865Y0120775D01*
X0105916Y0118534D02*
X0105916Y0114330D01*
X0101713Y0118534D01*
X0100662Y0118534D01*
X0099611Y0117483D01*
X0099611Y0115381D01*
X0100662Y0114330D01*
X0099611Y0112088D02*
X0105916Y0107884D01*
X0105916Y0105643D02*
X0099611Y0105643D01*
X0101713Y0103541D01*
X0099611Y0101439D01*
X0105916Y0101439D01*
X0105916Y0099197D02*
X0105916Y0094993D01*
X0101713Y0099197D01*
X0100662Y0099197D01*
X0099611Y0098146D01*
X0099611Y0096044D01*
X0100662Y0094993D01*
X0100662Y0092752D02*
X0101713Y0092752D01*
X0102763Y0091701D01*
X0103814Y0092752D01*
X0104865Y0092752D01*
X0105916Y0091701D01*
X0105916Y0089599D01*
X0104865Y0088548D01*
X0104865Y0086306D02*
X0105916Y0085255D01*
X0105916Y0083153D01*
X0104865Y0082102D01*
X0100662Y0082102D01*
X0099611Y0083153D01*
X0099611Y0085255D01*
X0100662Y0086306D01*
X0100662Y0088548D02*
X0099611Y0089599D01*
X0099611Y0091701D01*
X0100662Y0092752D01*
X0102763Y0091701D02*
X0102763Y0090650D01*
X0099611Y0079907D02*
X0099611Y0077805D01*
X0099611Y0078856D02*
X0105916Y0078856D01*
X0105916Y0077805D02*
X0105916Y0079907D01*
X0102763Y0075564D02*
X0103814Y0074513D01*
X0103814Y0071360D01*
X0105916Y0071360D02*
X0099611Y0071360D01*
X0099611Y0074513D01*
X0100662Y0075564D01*
X0102763Y0075564D01*
X0099611Y0107884D02*
X0105916Y0112088D01*
D107*
X0128691Y0026013D02*
X0128691Y0009083D01*
X0162549Y0009083D01*
X0162549Y0026013D01*
X0128691Y0026013D01*
X0137746Y0009674D02*
X0137746Y0001800D01*
X0145620Y0001800D01*
X0145620Y0009674D01*
D108*
X0124285Y0012748D02*
X0121216Y0012748D01*
X0121216Y0017352D01*
X0124285Y0017352D01*
X0122750Y0015050D02*
X0121216Y0015050D01*
X0119681Y0016585D02*
X0118914Y0017352D01*
X0116612Y0017352D01*
X0116612Y0012748D01*
X0118914Y0012748D01*
X0119681Y0013515D01*
X0119681Y0016585D01*
X0115077Y0017352D02*
X0113543Y0017352D01*
X0114310Y0017352D02*
X0114310Y0012748D01*
X0113543Y0012748D02*
X0115077Y0012748D01*
X0112008Y0012748D02*
X0108939Y0012748D01*
X0108939Y0017352D01*
X0107404Y0016585D02*
X0106637Y0017352D01*
X0105102Y0017352D01*
X0104335Y0016585D01*
X0104335Y0015817D01*
X0105102Y0015050D01*
X0106637Y0015050D01*
X0107404Y0014283D01*
X0107404Y0013515D01*
X0106637Y0012748D01*
X0105102Y0012748D01*
X0104335Y0013515D01*
D109*
X0078612Y0072977D02*
X0073612Y0072977D01*
X0071112Y0075477D01*
X0071112Y0100477D01*
X0073612Y0102977D01*
X0078612Y0102977D01*
X0081112Y0100477D01*
X0081112Y0075477D01*
X0078612Y0072977D01*
X0050588Y0183284D02*
X0030588Y0183284D01*
X0028088Y0188284D01*
X0025588Y0190784D01*
X0025588Y0195784D01*
X0028088Y0198284D01*
X0030588Y0203284D01*
X0050588Y0203284D01*
X0053088Y0198284D01*
X0055588Y0195784D01*
X0055588Y0190784D01*
X0053088Y0188284D01*
X0050588Y0183284D01*
X0085811Y0187023D02*
X0085811Y0190226D01*
X0087413Y0190226D01*
X0087946Y0189692D01*
X0087946Y0188624D01*
X0087413Y0188090D01*
X0085811Y0188090D01*
X0089494Y0187023D02*
X0090562Y0187023D01*
X0090028Y0187023D02*
X0090028Y0190226D01*
X0089494Y0190226D02*
X0090562Y0190226D01*
X0091950Y0189692D02*
X0091950Y0187557D01*
X0092484Y0187023D01*
X0093551Y0187023D01*
X0094085Y0187557D01*
X0095633Y0188090D02*
X0097768Y0190226D01*
X0099316Y0190226D02*
X0100384Y0190226D01*
X0099850Y0190226D02*
X0099850Y0187023D01*
X0099316Y0187023D02*
X0100384Y0187023D01*
X0097768Y0187023D02*
X0096167Y0188624D01*
X0095633Y0187023D02*
X0095633Y0190226D01*
X0094085Y0189692D02*
X0093551Y0190226D01*
X0092484Y0190226D01*
X0091950Y0189692D01*
X0101771Y0190226D02*
X0103907Y0190226D01*
X0102839Y0190226D02*
X0102839Y0187023D01*
X0105455Y0187557D02*
X0105988Y0187023D01*
X0107056Y0187023D01*
X0107590Y0187557D01*
X0107590Y0188090D01*
X0107056Y0188624D01*
X0106522Y0188624D01*
X0107056Y0188624D02*
X0107590Y0189158D01*
X0107590Y0189692D01*
X0107056Y0190226D01*
X0105988Y0190226D01*
X0105455Y0189692D01*
X0135565Y0190678D02*
X0138065Y0188178D01*
X0140565Y0183178D01*
X0160565Y0183178D01*
X0163065Y0188178D01*
X0165565Y0190678D01*
X0165565Y0195678D01*
X0163065Y0198178D01*
X0160565Y0203178D01*
X0140565Y0203178D01*
X0138065Y0198178D01*
X0135565Y0195678D01*
X0135565Y0190678D01*
M02*
