G75*
%MOIN*%
%OFA0B0*%
%FSLAX25Y25*%
%IPPOS*%
%LPD*%
%AMOC8*
5,1,8,0,0,1.08239X$1,22.5*
%
%ADD10C,0.00000*%
%ADD11OC8,0.05200*%
%ADD12C,0.05200*%
%ADD13C,0.05150*%
%ADD14C,0.11220*%
%ADD15C,0.07400*%
%ADD16C,0.05200*%
%ADD17C,0.05937*%
%ADD18C,0.01600*%
%ADD19C,0.03562*%
D10*
X0001600Y0008288D02*
X0001600Y0205139D01*
X0198450Y0205139D01*
X0198450Y0008288D01*
X0001600Y0008288D01*
D11*
X0032478Y0019044D03*
X0049596Y0038883D03*
X0049596Y0048883D03*
X0060880Y0066776D03*
X0054631Y0078190D03*
X0045836Y0098942D03*
X0035836Y0098942D03*
X0014631Y0078190D03*
X0020880Y0066776D03*
X0023694Y0052540D03*
X0013694Y0052540D03*
X0062100Y0025288D03*
X0067100Y0017788D03*
X0072100Y0025288D03*
X0075746Y0038434D03*
X0075746Y0048434D03*
X0090360Y0027001D03*
X0090360Y0017001D03*
X0134100Y0068572D03*
X0054624Y0134544D03*
X0054624Y0174544D03*
X0129100Y0168698D03*
X0129100Y0158698D03*
X0175738Y0153379D03*
X0175738Y0193379D03*
D12*
X0134100Y0088572D03*
X0032478Y0039044D03*
D13*
X0137746Y0017548D03*
X0145620Y0017548D03*
X0153494Y0017548D03*
X0169383Y0035251D03*
X0174108Y0038401D03*
X0169383Y0041550D03*
X0174108Y0044700D03*
X0169383Y0047850D03*
D14*
X0189462Y0055920D03*
X0189462Y0027180D03*
D15*
X0193600Y0073288D03*
X0193600Y0083288D03*
X0193600Y0093288D03*
X0193600Y0103288D03*
X0193600Y0113288D03*
X0193600Y0123288D03*
X0193600Y0133288D03*
X0193600Y0143288D03*
X0160565Y0193178D03*
X0140565Y0193178D03*
X0120738Y0198123D03*
X0110738Y0198123D03*
X0100738Y0198123D03*
X0090738Y0198123D03*
X0080738Y0198123D03*
X0050588Y0193284D03*
X0030588Y0193284D03*
X0006600Y0143288D03*
X0006600Y0133288D03*
X0006600Y0123288D03*
X0006600Y0113288D03*
X0006600Y0103288D03*
X0006600Y0093288D03*
X0006600Y0083288D03*
X0006600Y0073288D03*
X0076112Y0077977D03*
X0076112Y0087977D03*
X0076112Y0097977D03*
D16*
X0085366Y0098544D02*
X0090566Y0098544D01*
X0090566Y0088544D02*
X0085366Y0088544D01*
X0085366Y0078544D02*
X0090566Y0078544D01*
X0090566Y0068544D02*
X0085366Y0068544D01*
X0085366Y0058544D02*
X0090566Y0058544D01*
X0090566Y0048544D02*
X0085366Y0048544D01*
X0085366Y0038544D02*
X0090566Y0038544D01*
X0115366Y0038544D02*
X0120566Y0038544D01*
X0120566Y0048544D02*
X0115366Y0048544D01*
X0115366Y0058544D02*
X0120566Y0058544D01*
X0120566Y0068544D02*
X0115366Y0068544D01*
X0115366Y0078544D02*
X0120566Y0078544D01*
X0120566Y0088544D02*
X0115366Y0088544D01*
X0115366Y0098544D02*
X0120566Y0098544D01*
X0120566Y0108544D02*
X0115366Y0108544D01*
X0115366Y0118544D02*
X0120566Y0118544D01*
X0120566Y0128544D02*
X0115366Y0128544D01*
X0115366Y0138544D02*
X0120566Y0138544D01*
X0120566Y0148544D02*
X0115366Y0148544D01*
X0115366Y0158544D02*
X0120566Y0158544D01*
X0120566Y0168544D02*
X0115366Y0168544D01*
X0090566Y0168544D02*
X0085366Y0168544D01*
X0085366Y0158544D02*
X0090566Y0158544D01*
X0090566Y0148544D02*
X0085366Y0148544D01*
X0085366Y0138544D02*
X0090566Y0138544D01*
X0090566Y0128544D02*
X0085366Y0128544D01*
X0085366Y0118544D02*
X0090566Y0118544D01*
X0090566Y0108544D02*
X0085366Y0108544D01*
D17*
X0129872Y0017548D03*
X0161368Y0017548D03*
D18*
X0181528Y0028288D02*
X0181528Y0030042D01*
X0181540Y0030055D01*
X0181600Y0038288D01*
X0174108Y0038401D01*
X0169383Y0041550D02*
X0160600Y0047288D01*
X0141600Y0048288D02*
X0117966Y0048544D01*
X0117966Y0058544D02*
X0136600Y0058288D01*
X0126600Y0073288D02*
X0117966Y0068544D01*
X0117966Y0088544D02*
X0134100Y0088572D01*
X0132600Y0098788D02*
X0117966Y0098544D01*
X0117966Y0108544D02*
X0131600Y0123288D01*
X0181600Y0123288D01*
X0188344Y0128544D02*
X0193600Y0123288D01*
X0188344Y0128544D02*
X0117966Y0128544D01*
X0117966Y0138544D02*
X0188344Y0138544D01*
X0193600Y0133288D01*
X0193600Y0143288D02*
X0188391Y0148498D01*
X0182722Y0148498D01*
X0182676Y0148544D01*
X0117966Y0148544D01*
X0117966Y0168544D02*
X0101600Y0168288D01*
X0087966Y0168544D02*
X0095600Y0183788D01*
X0121100Y0183788D01*
X0120738Y0198123D02*
X0140565Y0193178D01*
X0146600Y0168788D02*
X0129100Y0168698D01*
X0117966Y0168544D01*
X0146600Y0168788D02*
X0175738Y0193379D01*
X0175738Y0153379D02*
X0146600Y0153288D01*
X0131600Y0113288D02*
X0126600Y0108288D01*
X0131600Y0113288D02*
X0193600Y0113288D01*
X0193600Y0103288D02*
X0146600Y0103288D01*
X0141600Y0098288D01*
X0132600Y0098788D02*
X0141600Y0108288D01*
X0161600Y0108288D01*
X0151600Y0093288D02*
X0148000Y0088088D01*
X0151600Y0093288D02*
X0193600Y0093288D01*
X0193600Y0083288D02*
X0156600Y0083288D01*
X0154200Y0078288D01*
X0181528Y0028288D02*
X0111600Y0028288D01*
X0087966Y0038544D01*
X0087966Y0048544D02*
X0101600Y0048288D01*
X0087966Y0048544D02*
X0075746Y0048434D01*
X0062100Y0025288D01*
X0049596Y0038883D01*
X0032478Y0039044D01*
X0013694Y0052540D01*
X0014631Y0078190D01*
X0006600Y0083288D01*
X0006600Y0093288D02*
X0016100Y0098788D01*
X0035836Y0098942D01*
X0041100Y0091788D01*
X0068100Y0091788D01*
X0076112Y0097977D02*
X0087966Y0088544D01*
X0087966Y0078544D02*
X0076112Y0077977D01*
X0070600Y0068288D02*
X0087966Y0068544D01*
X0087966Y0058544D02*
X0068300Y0058388D01*
X0067800Y0058388D01*
X0070600Y0068288D02*
X0054631Y0078190D01*
X0046600Y0088288D01*
X0016600Y0088288D01*
X0020880Y0066776D02*
X0023694Y0052540D01*
X0067100Y0017788D02*
X0090360Y0017001D01*
X0087966Y0108544D02*
X0081600Y0113288D01*
X0006600Y0113288D01*
X0006600Y0123288D02*
X0081600Y0123288D01*
X0087966Y0118544D01*
X0087966Y0128544D02*
X0063300Y0128688D01*
X0071600Y0138288D02*
X0087966Y0138544D01*
X0087966Y0148544D02*
X0016600Y0148288D01*
X0011900Y0141238D01*
X0011900Y0141093D01*
X0011609Y0140802D01*
X0006600Y0133288D01*
X0006600Y0143288D02*
X0016600Y0158288D01*
X0087966Y0158544D01*
D19*
X0101600Y0168288D03*
X0121100Y0183788D03*
X0146600Y0153288D03*
X0181600Y0123288D03*
X0161600Y0108288D03*
X0141600Y0098288D03*
X0148000Y0088088D03*
X0154200Y0078288D03*
X0136600Y0058288D03*
X0141600Y0048288D03*
X0160600Y0047288D03*
X0181600Y0043288D03*
X0181600Y0038288D03*
X0126600Y0073288D03*
X0101600Y0048288D03*
X0067800Y0058388D03*
X0068100Y0091788D03*
X0063300Y0128688D03*
X0071600Y0138288D03*
X0016600Y0088288D03*
X0126600Y0108288D03*
M02*
