G75*
%MOIN*%
%OFA0B0*%
%FSLAX25Y25*%
%IPPOS*%
%LPD*%
%AMOC8*
5,1,8,0,0,1.08239X$1,22.5*
%
%ADD10C,0.00000*%
%ADD11OC8,0.05600*%
%ADD12C,0.05600*%
%ADD13C,0.05550*%
%ADD14C,0.11620*%
%ADD15C,0.07800*%
%ADD16C,0.05600*%
%ADD17C,0.06337*%
D10*
X0001600Y0008288D02*
X0001600Y0205139D01*
X0198450Y0205139D01*
X0198450Y0008288D01*
X0001600Y0008288D01*
D11*
X0032478Y0019044D03*
X0049596Y0038883D03*
X0049596Y0048883D03*
X0060880Y0066776D03*
X0054631Y0078190D03*
X0045836Y0098942D03*
X0035836Y0098942D03*
X0014631Y0078190D03*
X0020880Y0066776D03*
X0023694Y0052540D03*
X0013694Y0052540D03*
X0062100Y0025288D03*
X0067100Y0017788D03*
X0072100Y0025288D03*
X0075746Y0038434D03*
X0075746Y0048434D03*
X0090360Y0027001D03*
X0090360Y0017001D03*
X0134100Y0068572D03*
X0054624Y0134544D03*
X0054624Y0174544D03*
X0129100Y0168698D03*
X0129100Y0158698D03*
X0175738Y0153379D03*
X0175738Y0193379D03*
D12*
X0134100Y0088572D03*
X0032478Y0039044D03*
D13*
X0137746Y0017548D03*
X0145620Y0017548D03*
X0153494Y0017548D03*
X0169383Y0035251D03*
X0174108Y0038401D03*
X0169383Y0041550D03*
X0174108Y0044700D03*
X0169383Y0047850D03*
D14*
X0189462Y0055920D03*
X0189462Y0027180D03*
D15*
X0193600Y0073288D03*
X0193600Y0083288D03*
X0193600Y0093288D03*
X0193600Y0103288D03*
X0193600Y0113288D03*
X0193600Y0123288D03*
X0193600Y0133288D03*
X0193600Y0143288D03*
X0160565Y0193178D03*
X0140565Y0193178D03*
X0120738Y0198123D03*
X0110738Y0198123D03*
X0100738Y0198123D03*
X0090738Y0198123D03*
X0080738Y0198123D03*
X0050588Y0193284D03*
X0030588Y0193284D03*
X0006600Y0143288D03*
X0006600Y0133288D03*
X0006600Y0123288D03*
X0006600Y0113288D03*
X0006600Y0103288D03*
X0006600Y0093288D03*
X0006600Y0083288D03*
X0006600Y0073288D03*
X0076112Y0077977D03*
X0076112Y0087977D03*
X0076112Y0097977D03*
D16*
X0085366Y0098544D02*
X0090566Y0098544D01*
X0090566Y0088544D02*
X0085366Y0088544D01*
X0085366Y0078544D02*
X0090566Y0078544D01*
X0090566Y0068544D02*
X0085366Y0068544D01*
X0085366Y0058544D02*
X0090566Y0058544D01*
X0090566Y0048544D02*
X0085366Y0048544D01*
X0085366Y0038544D02*
X0090566Y0038544D01*
X0115366Y0038544D02*
X0120566Y0038544D01*
X0120566Y0048544D02*
X0115366Y0048544D01*
X0115366Y0058544D02*
X0120566Y0058544D01*
X0120566Y0068544D02*
X0115366Y0068544D01*
X0115366Y0078544D02*
X0120566Y0078544D01*
X0120566Y0088544D02*
X0115366Y0088544D01*
X0115366Y0098544D02*
X0120566Y0098544D01*
X0120566Y0108544D02*
X0115366Y0108544D01*
X0115366Y0118544D02*
X0120566Y0118544D01*
X0120566Y0128544D02*
X0115366Y0128544D01*
X0115366Y0138544D02*
X0120566Y0138544D01*
X0120566Y0148544D02*
X0115366Y0148544D01*
X0115366Y0158544D02*
X0120566Y0158544D01*
X0120566Y0168544D02*
X0115366Y0168544D01*
X0090566Y0168544D02*
X0085366Y0168544D01*
X0085366Y0158544D02*
X0090566Y0158544D01*
X0090566Y0148544D02*
X0085366Y0148544D01*
X0085366Y0138544D02*
X0090566Y0138544D01*
X0090566Y0128544D02*
X0085366Y0128544D01*
X0085366Y0118544D02*
X0090566Y0118544D01*
X0090566Y0108544D02*
X0085366Y0108544D01*
D17*
X0129872Y0017548D03*
X0161368Y0017548D03*
M02*
